<?xml version="1.0" encoding="UTF-8"?><svg id="Layer_1" xmlns="http://www.w3.org/2000/svg" xmlns:xlink="http://www.w3.org/1999/xlink" viewBox="0 0 593.67 318.91"><defs><style>.cls-1{fill:#404547;}.cls-1,.cls-2,.cls-3,.cls-4,.cls-5{stroke-width:0px;}.cls-6{clip-path:url(#clippath);}.cls-2{fill:none;}.cls-3{fill:#ffecd2;}.cls-4{fill:#0092a6;}.cls-5{fill:#f99b1c;}</style><clipPath id="clippath"><rect class="cls-2" x="-.8" width="595.28" height="318.91"/></clipPath></defs><g class="cls-6"><polygon class="cls-5" points="0 109.54 209.4 109.54 148.83 170.11 79.96 238.95 0 318.91 0 109.54"/><rect class="cls-1" x="27.99" y="-5.31" width="147.96" height="147.96"/><rect class="cls-3" x="175.95" y="-5.31" width="197.27" height="147.96"/><path class="cls-5" d="M175.95-5.31h197.27c-22.63,85.08-102.35,147.96-197.27,147.96V-5.31Z"/><path class="cls-4" d="M373.22-5.31h197.27v145.42c.03.84.03,1.71.03,2.54h-197.3V-5.31Z"/><path class="cls-5" d="M373.22-5.31h130.49c3.1,2.75,6.09,5.53,9.01,8.46,35.15,35.15,57.1,83.48,57.76,136.96.03.84.03,1.71.03,2.54h-197.3V-5.31Z"/><rect class="cls-4" x="47.15" y="27.68" width="66.22" height="163.74" transform="translate(-29.28 189.8) rotate(-90)"/><rect class="cls-4" x="90.63" y="57.36" width="6.84" height="163.74" transform="translate(-45.19 233.28) rotate(-90)"/><path class="cls-1" d="M373.23,142.66h98.64c0-54.48-44.16-98.64-98.64-98.64h0v98.64Z"/><path class="cls-5" d="M28.03-5.3h83.17c39.74,35.49,64.76,87.13,64.76,144.65v3.31c-58.91,0-111.77-25.82-147.93-66.78V-5.3Z"/><rect class="cls-4" x="570.51" y="-34.92" width="29.58" height="177.57" transform="translate(1170.6 107.74) rotate(180)"/><rect class="cls-5" x="-42.48" y="5.96" width="111.35" height="29.6" transform="translate(-7.57 33.95) rotate(-90)"/></g></svg>