<?xml version="1.0" encoding="UTF-8"?><svg id="Layer_1" xmlns="http://www.w3.org/2000/svg" xmlns:xlink="http://www.w3.org/1999/xlink" viewBox="0 0 153.79 106.63"><defs><style>.cls-1{clip-path:url(#clippath);}.cls-2,.cls-3{stroke-width:0px;}.cls-2,.cls-4{fill:none;}.cls-3{fill:#006776;}.cls-4{stroke:#595a5c;stroke-miterlimit:10;}</style><clipPath id="clippath"><rect class="cls-2" x="-5.09" y="-32.77" width="158.89" height="139.4"/></clipPath></defs><g class="cls-1"><path class="cls-3" d="M23.39,74.74C23.39,34.8,55.87,2.32,95.8,2.32s72.42,32.49,72.42,72.42-32.49,72.42-72.42,72.42S23.39,114.67,23.39,74.74ZM147.16,74.74c0-28.32-23.04-51.36-51.36-51.36s-51.36,23.04-51.36,51.36,23.04,51.36,51.36,51.36,51.36-23.04,51.36-51.36Z"/><path class="cls-4" d="M1.68,74.74C1.68,34.8,34.16,2.32,74.1,2.32s72.42,32.49,72.42,72.42-32.49,72.42-72.42,72.42S1.68,114.67,1.68,74.74ZM125.45,74.74c0-28.32-23.04-51.36-51.36-51.36s-51.36,23.04-51.36,51.36,23.04,51.36,51.36,51.36,51.36-23.04,51.36-51.36Z"/></g></svg>