<?xml version="1.0" encoding="UTF-8"?><svg id="Layer_1" xmlns="http://www.w3.org/2000/svg" xmlns:xlink="http://www.w3.org/1999/xlink" viewBox="0 0 425.2 205.6"><defs><style>.cls-1{fill:#ed145a;}.cls-1,.cls-2,.cls-3,.cls-4,.cls-5,.cls-6,.cls-7,.cls-8,.cls-9,.cls-10,.cls-11,.cls-12,.cls-13{stroke-width:0px;}.cls-2{fill:#010101;}.cls-14{clip-path:url(#clippath);}.cls-15,.cls-4{fill:#fddcd0;}.cls-3{fill:#272727;}.cls-5{fill:#f9ae9b;}.cls-6{fill:#f7b1c8;}.cls-7{fill:#006776;}.cls-8{fill:#fccdbf;}.cls-9{opacity:0;}.cls-9,.cls-12{fill:#fff;}.cls-10{fill:#0092a6;}.cls-11{fill:#f04e23;}.cls-13{fill:#007160;}</style><clipPath id="clippath"><circle class="cls-4" cx="323.3" cy="109.69" r="54.69" transform="translate(195.9 426.43) rotate(-86.83)"/></clipPath></defs><rect id="_10" class="cls-9" x="-23.09" y="-57.55" width="471.38" height="314.26"/><path class="cls-10" d="M113.69,25.39c-3.05,0-5.52,2.47-5.52,5.52s2.47,5.52,5.52,5.52,5.52-2.47,5.52-5.52-2.47-5.52-5.52-5.52Z"/><path class="cls-10" d="M132.08,25.39c-3.05,0-5.52,2.47-5.52,5.52s2.47,5.52,5.52,5.52,5.52-2.47,5.52-5.52-2.47-5.52-5.52-5.52Z"/><path class="cls-10" d="M150.48,25.39c-3.05,0-5.52,2.47-5.52,5.52s2.47,5.52,5.52,5.52,5.52-2.47,5.52-5.52-2.47-5.52-5.52-5.52Z"/><path class="cls-10" d="M168.88,25.39c-3.05,0-5.52,2.47-5.52,5.52s2.47,5.52,5.52,5.52,5.52-2.47,5.52-5.52-2.47-5.52-5.52-5.52Z"/><path class="cls-10" d="M113.69,43.79c-3.05,0-5.52,2.47-5.52,5.52s2.47,5.52,5.52,5.52,5.52-2.47,5.52-5.52-2.47-5.52-5.52-5.52Z"/><path class="cls-10" d="M132.08,43.79c-3.05,0-5.52,2.47-5.52,5.52s2.47,5.52,5.52,5.52,5.52-2.47,5.52-5.52-2.47-5.52-5.52-5.52Z"/><path class="cls-10" d="M150.48,43.79c-3.05,0-5.52,2.47-5.52,5.52s2.47,5.52,5.52,5.52,5.52-2.47,5.52-5.52-2.47-5.52-5.52-5.52Z"/><path class="cls-10" d="M168.88,43.79c-3.05,0-5.52,2.47-5.52,5.52s2.47,5.52,5.52,5.52,5.52-2.47,5.52-5.52-2.47-5.52-5.52-5.52Z"/><path class="cls-10" d="M40.34,129.77c-3.87,1.91,7.66,14.31,7.66,14.31,0,0-46.42-20.13-41.12-5.84,5.3,14.29,40.4,23.16,40.4,23.16,0,0-23.62,4.49-18.49,7.98,5.13,3.5,43.55-6.15,43.55-6.15,0,0-28.13-35.37-32-33.46Z"/><path class="cls-10" d="M19.98,122.96c.9,7.2,16.36,10.86,16.36,10.86,0,0-17.26-18.06-16.36-10.86Z"/><path class="cls-10" d="M23.75,114.72c-1.54,2.65,7.37,9.9,7.37,9.9,0,0-5.83-12.54-7.37-9.9Z"/><path class="cls-4" d="M159.06,62.31c-6.15-6.15-13.32-10.98-21.3-14.36-8.26-3.49-17.03-5.27-26.08-5.27s-17.82,1.77-26.08,5.27c-7.98,3.37-15.14,8.21-21.3,14.36-6.15,6.15-10.98,13.32-14.36,21.3-3.49,8.26-5.27,17.03-5.27,26.08s1.77,17.82,5.27,26.08c3.37,7.98,8.21,15.14,14.36,21.3s13.32,10.98,21.3,14.36c8.26,3.49,17.03,5.27,26.08,5.27s17.82-1.77,26.08-5.27c7.98-3.37,15.14-8.21,21.3-14.36,6.15-6.15,10.98-13.32,14.36-21.3,3.49-8.26,5.27-17.03,5.27-26.08s-1.77-17.82-5.27-26.08c-3.37-7.98-8.21-15.14-14.36-21.3ZM170.9,134.7c-3.24,7.65-7.87,14.52-13.77,20.43-5.9,5.9-12.77,10.54-20.43,13.77-7.92,3.35-16.34,5.05-25.01,5.05s-17.09-1.7-25.01-5.05c-7.65-3.24-14.52-7.87-20.43-13.77-5.9-5.9-10.54-12.77-13.77-20.43-3.35-7.92-5.05-16.34-5.05-25.01s1.7-17.09,5.05-25.01c3.24-7.65,7.87-14.52,13.77-20.43,5.9-5.9,12.77-10.54,20.43-13.77,7.92-3.35,16.34-5.05,25.01-5.05s17.09,1.7,25.01,5.05c7.65,3.24,14.52,7.87,20.43,13.77,5.9,5.9,10.54,12.77,13.77,20.43,3.35,7.92,5.05,16.34,5.05,25.01s-1.7,17.09-5.05,25.01Z"/><path class="cls-10" d="M378.31,151.65s11.53-12.4,7.66-14.31c-3.87-1.91-36.18,32.71-36.18,32.71,0,0,42.59,10.4,47.72,6.9,5.13-3.5-18.49-7.98-18.49-7.98,0,0,35.1-8.87,40.4-23.16,5.3-14.29-41.12,5.84-41.12,5.84Z"/><path class="cls-10" d="M389.96,141.39s15.46-3.65,16.36-10.86c.9-7.2-16.36,10.86-16.36,10.86Z"/><path class="cls-10" d="M395.18,132.18s8.91-7.25,7.37-9.9c-1.54-2.65-7.37,9.9-7.37,9.9Z"/><circle class="cls-4" cx="111.68" cy="109.69" r="54.69"/><path class="cls-8" d="M56.93,106.63c0,3.37.33,6.67.96,9.86,14.17,3.9,22.32-.98,26.52-8.55,4.45-8.03-10.69-11.87-8.2-23.7,2.49-11.83,9.8-7.39,16.63-13.49,6.57-5.87,1.66-12.78,1.28-13.29-21.46,6.05-37.19,25.77-37.19,49.16Z"/><path class="cls-8" d="M87.18,121.1c-6.04,1.14-24.08,10.46-4.28,18.54,5.26,2.15-1.79,12.45,6.17,9.19,6.86-2.81,7.92-7.96,5.27-10.36-2.64-2.4,1.21-6.26,3.2-10.9,2-4.64-2.95-7.88-10.37-6.47Z"/><path class="cls-8" d="M134.25,63.49c-3.68,2.97-11.35,10.83-4.64,20.51,5.26,7.59,20.29,5.81,19.09,12.01-1.2,6.2-8.8,11.91-7.9,18.58.83,6.17,8.29,10.19,13.39,11.34,2.43-5.96,3.78-12.47,3.78-19.31,0-18.14-9.46-34.08-23.72-43.14Z"/><path class="cls-8" d="M142.17,131.54c-2.54,4.63.73,9.27,1.63,10.41,3.89-4.06,7.11-8.77,9.5-13.94-3.11.9-8.62-1.04-11.13,3.53Z"/><path class="cls-3" d="M153.12,127.6c-16.73,1.26-15.99,28.66-13.65,47.96l26.28.55c1.44-8.99,2.31-18.06,2.31-24.81-.02-19.2-14.94-23.7-14.94-23.7Z"/><path class="cls-6" d="M106.88,95.36l-10.04-8.2s-1.04,16.3-5.37,25.94c-4.33,9.64-11.79,9.58-11.79,9.58,0,0,5.31,4.88,19.18,7.34,13.87,2.46,25.58-8.1,25.58-8.1-17.79-7.16-17.56-26.56-17.56-26.56Z"/><path class="cls-3" d="M109.37,106.91c-2.86-.63-5.66-1.44-8.48-2.22-2.09-.58-4.21-1.09-6.31-1.65-.77,3.53-1.79,7.1-3.11,10.05-4.33,9.64-11.79,9.58-11.79,9.58,0,0,5.31,4.88,19.18,7.34,13.87,2.46,25.58-8.1,25.58-8.1-8.4-3.38-12.78-9.5-15.07-15.01Z"/><path class="cls-1" d="M106.88,95.36l-9.71-7.76s1.65,3.95,3.16,7.57c1.5,3.63,7.61,7.45,7.61,7.45l-1.01-6.96-.04-.3Z"/><path class="cls-6" d="M112.34,70.13c-3.64-3.09-14.7-1.7-15.78,3.16-1.08,4.86-.72,7.72-.72,7.72,0,0-.7-1.04-2.11-.28-1.41.77-2.23,4.39-.52,5.97,1.71,1.58,3.64.46,3.64.46,0,0,.66,2.5,4.74,5.67,4.08,3.17,14.83,5.07,15.62,2.82.79-2.24-1.23-22.44-4.87-25.53Z"/><path class="cls-3" d="M98.02,71.98s.15.12.42.28c-.47-.42-.42-.28-.42-.28Z"/><path class="cls-3" d="M112.82,62.26c-3.16-.93-4.01-.86-4.01-.86,0,0,1.84-.98,1.15-2.98-.69-2-1.57-1.99-2.44-.77-.87,1.22-3.45,5.48-8.42,8.39-4.97,2.91-7.91,7.17-6.8,11.02,1.11,3.86,1.71,3.79,1.71,3.79,0,0,1.79-.4,3.1,1.32,1.31,1.72,1.55,2.15,1.61,2.25.05.11,1.26-1.05.93-2.75-.33-1.7-.51-1.85-.51-1.85,0,0,.72.2,1.1-.76.38-.95-.64-2.67-.64-2.67,0,0,1.18.77,1.46-.06.28-.83-1.13-2.64-2.13-3.62-.21-.2-.37-.35-.5-.47-.26-.16-.42-.28-.42-.28,0,0-.05-.14.42.28.79.49,2.57,1.42,4.15.91,2.1-.68.94-1.83.94-1.83,0,0,4.28,1.95,8.68-.67l1.24,1.27s4.63-1.46,4.82-4.06c.19-2.6-2.28-4.68-5.44-5.61Z"/><path class="cls-3" d="M111.58,77.35c-.75.93-.41,2.33-.41,2.33,0,0,.02-1.18.52-1.94.51-.77,2.45-1.12,2.45-1.12,0,0-1.81-.21-2.56.73Z"/><path class="cls-3" d="M105.19,78.09c-.74-.36-3.39-.21-3.79.03,0,0,2.53-.03,3.36.22.83.25,1.46,1.52,1.46,1.52,0,0-.29-1.41-1.04-1.77Z"/><path class="cls-3" d="M104.24,78.26c-.35,0-.64.34-.65.78-.01.44.26.81.61.82.35,0,.64-.34.65-.78.01-.44-.26-.81-.61-.82Z"/><path class="cls-3" d="M112.22,77.31c-.35.04-.59.43-.54.87.05.44.37.77.71.73.35-.04.59-.42.54-.87-.05-.44-.37-.76-.71-.73Z"/><polygon class="cls-1" points="108.36 83.14 110.95 84.15 108.5 77.55 108.36 83.14"/><path class="cls-3" d="M96.36,83.81c0-.05-.04-.11-.06-.17-.01-.03-.03-.07-.04-.1-.01-.04-.04-.07-.05-.1-.04-.07-.08-.14-.13-.21-.06-.07-.11-.14-.18-.2-.03-.03-.07-.06-.1-.09-.04-.03-.07-.06-.11-.08-.07-.06-.16-.1-.23-.14-.04-.02-.08-.04-.12-.06-.04-.02-.08-.03-.12-.05-.08-.03-.16-.05-.24-.07-.04,0-.07-.02-.11-.02-.04,0-.07,0-.1-.01-.07,0-.13-.01-.18-.01-.05,0-.1,0-.14,0-.04,0-.07,0-.09,0-.02,0-.03,0-.03,0,0,0,.04,0,.12.03.07.02.18.05.3.09.06.02.13.04.2.07.07.02.14.06.21.09.07.03.14.07.22.11.07.04.14.08.21.14.03.02.07.05.1.07.03.03.06.05.09.08.06.05.12.11.17.17.06.05.1.12.14.17.05.06.08.11.12.17.02.03.03.05.05.08.02.02.03.05.04.07.02.05.05.09.06.12.04.07.06.11.06.11,0,0,0-.04-.02-.12,0-.04-.02-.09-.03-.14Z"/><path class="cls-3" d="M110.2,89.1c-.15-.02-.32-.03-.5-.07-.18-.03-.38-.06-.58-.1-.05,0-.1-.02-.16-.03-.05-.01-.11-.02-.16-.04-.11-.02-.22-.05-.33-.07-.11-.02-.22-.05-.34-.07-.11-.03-.23-.07-.34-.1-.12-.03-.23-.07-.35-.1-.11-.04-.23-.08-.34-.12-.11-.04-.23-.08-.34-.12-.11-.05-.22-.1-.33-.15-.22-.09-.42-.21-.62-.32-.05-.03-.1-.06-.14-.09-.05-.03-.09-.06-.14-.09-.09-.06-.19-.11-.27-.18-.08-.06-.16-.12-.24-.18-.08-.06-.15-.13-.21-.18-.03-.03-.07-.06-.1-.09-.03-.03-.06-.06-.09-.09-.06-.06-.12-.11-.16-.17-.05-.06-.09-.11-.14-.16-.04-.05-.07-.1-.11-.14-.06-.09-.11-.16-.14-.21-.03-.05-.04-.08-.04-.08,0,0,0,.03.03.08.01.03.03.06.04.1.02.04.04.08.07.13.03.05.06.1.09.15.04.05.08.11.12.17.04.06.1.12.15.19.03.03.06.07.08.1.03.03.06.06.1.1.07.07.13.14.21.2.08.06.16.13.24.2.08.07.17.13.26.2.05.03.09.06.14.1.05.03.09.07.15.09.2.11.41.25.63.34.11.05.22.1.34.15.12.05.23.09.35.13.12.04.23.09.35.12.12.03.24.07.36.1.12.03.23.06.35.09.12.02.23.04.35.07.11.02.23.04.34.06.05,0,.11.02.16.03.05,0,.11.01.16.02.21.02.41.04.59.06.18.02.35.02.5.03.15,0,.28,0,.39,0,.22,0,.34,0,.34,0,0,0-.12-.02-.34-.04-.11-.01-.24-.03-.38-.05Z"/><path class="cls-3" d="M104.05,74.49c-1.45.12-3.23.92-3.23.92l5.79,1c-.17-.69-1.11-2.04-2.56-1.93Z"/><path class="cls-3" d="M110.36,73.64c-.57.54-.09,3.36-.09,3.36l3.2-3.04s-2.55-.86-3.11-.33Z"/><path class="cls-11" d="M108.07,78.75c0-.05-.01-.11-.02-.17,0-.06-.01-.13-.03-.2-.02-.07-.03-.14-.05-.22-.08-.31-.2-.69-.43-1.07-.23-.39-.56-.79-1-1.13-.23-.16-.47-.33-.75-.44-.07-.03-.14-.06-.21-.09-.07-.02-.15-.05-.22-.07l-.11-.04s-.08-.02-.12-.03c-.08-.02-.16-.04-.24-.05-.08-.02-.16-.02-.24-.03h-.12s-.06-.02-.06-.02c0,0,0,0-.02,0h0s-.02,0-.02,0h-.03c-.17,0-.34-.01-.51,0-.35.02-.7.1-1.04.23-.08.03-.17.07-.25.1-.08.04-.16.08-.25.13l-.12.07s-.08.05-.12.08c-.08.05-.16.1-.23.16-.3.23-.57.51-.81.82-.23.31-.41.67-.54,1.04l-.08.28-.02.07v.08s-.04.15-.04.15l-.03.15c-.01.05,0,.09-.01.14l-.02.27s0,.02,0,.03h0s0,.03,0,.03v.04s0,.07,0,.07v.15c0,.1.02.2.03.3l.02.15v.07s.03.07.03.07l.07.29c.11.38.28.74.49,1.07.22.32.47.61.76.86.07.06.15.11.23.17.04.03.08.06.11.08l.12.07c.08.05.16.1.24.14.08.04.17.08.25.12.34.14.68.24,1.03.28.18.03.34.03.5.03h.07s.06,0,.06,0h.12c.08-.02.17-.01.25-.03.65-.09,1.23-.33,1.69-.64.46-.32.81-.7,1.06-1.07.25-.37.39-.74.49-1.05.02-.08.04-.15.06-.22.02-.07.03-.14.04-.2.01-.06.02-.12.03-.17,0-.05,0-.1.01-.14.01-.17.02-.26.02-.26,0,0,0,.09-.02.26,0,.04,0,.09-.01.14,0,.05-.02.11-.03.17-.01.06-.02.13-.04.2-.02.07-.04.14-.06.22-.1.3-.25.67-.52,1.02-.26.36-.62.72-1.09.99-.24.13-.49.25-.77.33-.07.02-.14.04-.21.06-.07.01-.14.03-.22.04l-.11.02s-.07,0-.11.01c-.07,0-.15.01-.23.02-.08,0-.15,0-.23,0h-.12s-.06,0-.06,0h-.05c-.16-.03-.33-.04-.47-.08-.07-.02-.15-.03-.22-.05-.08-.03-.15-.05-.23-.08-.08-.02-.15-.06-.22-.09l-.11-.05-.06-.02-.05-.03c-.07-.04-.14-.08-.21-.12-.07-.04-.13-.09-.2-.14l-.1-.07-.09-.08c-.06-.05-.13-.1-.19-.16-.24-.23-.45-.49-.62-.77l-.12-.22s-.04-.07-.05-.11l-.05-.12-.05-.11s-.03-.08-.04-.12c-.02-.08-.05-.16-.07-.24-.03-.16-.08-.33-.09-.49-.01-.08-.02-.17-.02-.25v-.13s0-.06,0-.06v-.03s0-.02,0-.02h0s0-.01,0-.01h0s0,0,0,0l.02-.26s0-.1.01-.13l.02-.12.02-.12v-.06s.03-.06.03-.06l.07-.24c.02-.08.06-.16.09-.23.02-.04.03-.08.05-.12l.06-.11c.04-.07.07-.15.11-.22l.13-.21c.19-.27.41-.52.66-.74.06-.05.13-.1.19-.15l.1-.07.1-.06c.07-.04.14-.09.21-.13.07-.04.15-.07.22-.11.3-.13.6-.24.91-.28.15-.03.31-.04.47-.05h.03s.01,0,.01,0h0s0,0,0,0h.06s.12,0,.12,0c.08,0,.16,0,.23.01.07.01.15.02.22.03.04,0,.07,0,.11.02l.11.03c.07.02.14.03.22.05.07.02.14.05.21.07.27.09.52.23.75.37.45.29.79.68,1.04,1.04.25.37.38.74.46,1.05.02.08.04.15.05.22.01.07.02.14.03.2,0,.06.02.12.02.17,0,.05,0,.1,0,.14,0,.17,0,.26,0,.26,0,0,0-.09,0-.26,0-.04,0-.09,0-.14Z"/><path class="cls-11" d="M100.93,78.99h0s0-.01,0,0Z"/><path class="cls-11" d="M110.66,79.25h0s0-.02,0,0Z"/><path class="cls-11" d="M117.79,79.01c0-.05-.01-.11-.02-.17,0-.06-.01-.13-.03-.2-.02-.07-.03-.14-.05-.22-.08-.31-.2-.69-.43-1.07-.23-.39-.56-.79-1-1.13-.23-.16-.47-.33-.75-.44-.07-.03-.14-.06-.21-.09-.07-.02-.15-.05-.22-.07l-.11-.04s-.08-.02-.12-.03c-.08-.02-.16-.04-.24-.05-.08-.02-.16-.02-.24-.03h-.12s-.06-.02-.06-.02c0,0,0,0-.02,0h0s-.02,0-.02,0h-.03c-.17,0-.34-.01-.51,0-.35.02-.7.1-1.04.23-.08.03-.17.07-.25.1-.08.04-.16.08-.25.13l-.12.07s-.08.05-.12.08c-.08.05-.16.1-.23.16-.3.23-.57.51-.81.82-.23.31-.41.67-.55,1.04l-.08.28-.02.07v.08s-.04.15-.04.15l-.03.15c-.01.05,0,.09-.01.14l-.02.27s0,.01,0,.03h0s0,.03,0,.03v.04s0,.07,0,.07v.15c0,.1.02.2.03.3l.02.15v.07s.03.07.03.07l.07.29c.11.38.28.74.49,1.07.22.32.47.61.76.86.07.06.15.11.23.17.04.03.08.06.11.08l.12.07c.08.05.16.1.24.14.08.04.17.08.25.12.34.14.68.24,1.03.28.18.03.34.03.5.03h.07s.06,0,.06,0h.12c.08-.02.17-.01.25-.03.65-.09,1.23-.33,1.69-.64.46-.32.81-.7,1.06-1.07.25-.37.39-.74.49-1.05.02-.08.04-.15.06-.22.02-.07.03-.14.04-.2.01-.06.02-.12.03-.17,0-.05,0-.1.01-.14.01-.17.02-.26.02-.26,0,0,0,.09-.02.26,0,.04,0,.09-.01.14,0,.05-.02.11-.03.17-.01.06-.02.13-.04.2-.02.07-.04.14-.06.22-.1.3-.25.67-.52,1.02-.26.36-.62.72-1.09.99-.24.13-.49.25-.77.33-.07.02-.14.04-.21.06-.07.01-.14.03-.22.04l-.11.02s-.07,0-.11.01c-.07,0-.15.01-.23.02-.08,0-.15,0-.23,0h-.12s-.06,0-.06,0h-.05c-.16-.03-.33-.04-.47-.08-.07-.02-.15-.03-.22-.06-.08-.03-.15-.05-.23-.08-.08-.02-.15-.06-.22-.09l-.11-.05-.06-.02-.05-.03c-.07-.04-.14-.08-.21-.12-.07-.04-.13-.09-.2-.14l-.1-.07-.09-.08c-.06-.05-.13-.1-.19-.16-.24-.23-.45-.49-.62-.77l-.12-.22s-.04-.07-.05-.11l-.05-.12-.05-.11s-.03-.08-.04-.12c-.02-.08-.05-.16-.07-.24-.03-.16-.08-.33-.09-.49-.01-.08-.02-.17-.02-.25v-.13s0-.06,0-.06v-.03s0-.02,0-.02h0s0,0,0-.01h0s0,0,0,0l.02-.26s0-.1.01-.13l.02-.12.02-.12v-.06s.03-.06.03-.06l.07-.24c.02-.08.06-.16.09-.23.02-.04.03-.08.05-.12l.06-.11c.04-.07.07-.15.11-.22l.13-.21c.19-.27.41-.52.66-.74.06-.05.13-.1.19-.15.03-.02.06-.05.1-.07l.1-.06c.07-.04.14-.09.21-.13.07-.04.15-.07.22-.11.3-.13.6-.24.91-.28.15-.03.31-.04.47-.05h.03s.01,0,.01,0h0s0,0,0,0h.06s.12,0,.12,0c.08,0,.16,0,.23.01.07,0,.15.02.22.03.04,0,.07,0,.11.02l.11.03c.07.02.14.03.22.05.07.02.14.05.21.07.27.09.52.23.75.37.45.29.79.68,1.04,1.04.25.37.38.74.46,1.05.02.08.04.15.05.22.01.07.02.14.03.2,0,.06.02.12.02.17,0,.05,0,.1,0,.14,0,.17,0,.26,0,.26,0,0,0-.09,0-.26,0-.04,0-.09,0-.14Z"/><path class="cls-11" d="M110.25,79.16c-.06-.04-.15-.08-.25-.13-.11-.04-.23-.08-.36-.11-.13-.03-.27-.04-.41-.05-.14,0-.28,0-.42.03-.13.02-.26.05-.37.09-.11.04-.2.08-.26.11-.03.02-.06.03-.07.04-.02.01-.03.02-.03.02,0,0,0,0,.02.02.02.01.04.03.07.05.06.04.15.08.25.13.11.04.23.08.36.11.13.03.27.04.41.05.14,0,.28,0,.42-.02.13-.02.26-.05.37-.09.11-.04.2-.08.26-.11.03-.02.06-.03.07-.04.02-.01.03-.02.03-.02,0,0,0,0-.02-.02-.02-.01-.04-.03-.07-.05Z"/><path class="cls-13" d="M122.3,120.73l-44.76.76c-12.97,1.73-23.11,3.37-23.14,12.35-.01,4.31,4.46,22.25,9.49,40.13l84.54,1.77c4.18-21.29,7.3-43.97,5.36-46.36-3.64-4.49-31.49-8.65-31.49-8.65Z"/><path class="cls-12" d="M153.67,149.96c.15-.52.14-1.05.16-1.59l-4.24,28.1c2.32-9.83,2.59-16.38,4.09-26.51Z"/><path class="cls-12" d="M153.82,148.37l.21-1.37c-.16.45-.19.91-.21,1.37Z"/><polygon class="cls-2" points="153.71 149.97 153.71 149.96 153.71 149.96 153.71 149.97"/><path class="cls-2" d="M153.92,147.36l-.04.18-.03.18-.02.19v.19c-.02.12-.03.25-.03.37v.37c-.02.12-.03.25-.04.37l-.02.18-.03.18-.04.18-.05.18h0s0,0,0,0c-.17,1.11-.33,2.21-.49,3.32-.08.55-.15,1.11-.23,1.66l-.22,1.66-.84,6.66-.23,1.66c-.08.55-.15,1.11-.23,1.66l-.26,1.66-.13.83c-.04.28-.08.55-.13.83l-.3,1.65-.15.82c-.05.27-.1.55-.15.82-.23,1.09-.46,2.19-.67,3.29.26-1.09.51-2.18.77-3.27.07-.27.12-.55.17-.82l.16-.82.32-1.65c.06-.27.1-.55.15-.83l.14-.83.27-1.66c.09-.55.16-1.11.24-1.66l.24-1.66c.15-1.11.29-2.22.42-3.33l.4-3.33.21-1.66c.07-.55.13-1.11.2-1.66.14-1.11.3-2.22.43-3.33h0s0,0,0,0c0,0,0,0,0,0l.04-.18.03-.19.02-.19.02-.19c0-.13.01-.25.01-.37v-.37c0-.12,0-.25.01-.37,0-.12.01-.25.03-.37l.02-.18.03-.18.04-.18.05-.18-.06.18-.05.18Z"/><polygon class="cls-3" points="83.34 121.39 89.53 174.52 119.96 175.15 122.3 120.73 102.22 116.51 83.34 121.39"/><path class="cls-3" d="M109.48,140.88c-.07,2.23-.14,4.84-.23,7.63-.08,2.79-.16,5.77-.24,8.75-.14,5.96-.28,11.91-.39,16.38-.05,2.23-.09,4.09-.12,5.4-.03,1.3-.04,2.05-.04,2.05,0,0,.03-.74.08-2.05.05-1.3.12-3.16.2-5.4.04-1.12.08-2.33.12-3.6.04-1.28.08-2.63.12-4.02.08-2.79.16-5.77.24-8.75.07-2.98.14-5.96.21-8.75.06-2.79.11-5.4.16-7.63.04-2.23.07-4.09.1-5.4.02-1.3.03-2.05.03-2.05,0,0-.03.74-.07,2.05-.04,1.3-.1,3.16-.18,5.4Z"/><path class="cls-3" d="M104.73,138.9s-.04-.03-.05-.04l-.05.05h.1Z"/><path class="cls-3" d="M104.68,138.86s.04.03.05.04h-.1s.05-.04.05-.04c-.87-.72-1.73-1.45-2.6-2.17l-2.66-2.2-2.66-2.2-2.67-2.19-2.67-2.19-2.68-2.18c-.89-.73-1.79-1.45-2.69-2.17l-2.69-2.16,2.64,2.23c.88.74,1.77,1.48,2.65,2.22l2.66,2.21,2.66,2.2,2.66,2.2,2.67,2.19,2.67,2.19c.89.73,1.79,1.45,2.68,2.18l.05.04.05-.05,2.51-2.86c.83-.96,1.67-1.91,2.5-2.87-.86.93-1.71,1.87-2.56,2.81l-2.5,2.77Z"/><path class="cls-3" d="M120.84,123.97l-.48,1.08-.96,2.17-.95,2.17-.95,2.17c-.32.72-.63,1.45-.94,2.17l-.94,2.18-.89,2.07.09.08-.14.03.05-.11-2.44-2.32-1.27-1.2c-.42-.4-.85-.8-1.28-1.19.41.41.82.82,1.23,1.23l1.24,1.23,2.49,2.45.09.09.05-.11.95-2.17.95-2.17c.32-.72.63-1.45.94-2.17l.94-2.18.93-2.18.92-2.18.46-1.09.46-1.09c.3-.73.61-1.46.91-2.19-.33.72-.65,1.44-.98,2.16l-.49,1.08Z"/><polygon class="cls-3" points="114.82 138.07 114.74 137.98 114.69 138.1 114.82 138.07"/><path class="cls-3" d="M60.68,125.14s-15.14,3.7-16.18,22.87c-.37,6.91.04,16.31,1.06,25.59l26.13.55c3.4-19.17,5.74-46.84-11.01-49Z"/><path class="cls-4" d="M368.57,62.31c-6.15-6.15-13.32-10.98-21.3-14.36-8.26-3.49-17.03-5.27-26.08-5.27s-17.82,1.77-26.08,5.27c-7.98,3.37-15.14,8.21-21.3,14.36-6.15,6.15-10.98,13.32-14.36,21.3-3.49,8.26-5.27,17.03-5.27,26.08s1.77,17.82,5.27,26.08c3.37,7.98,8.21,15.14,14.36,21.3,6.15,6.15,13.32,10.98,21.3,14.36,8.26,3.49,17.03,5.27,26.08,5.27s17.82-1.77,26.08-5.27c7.98-3.37,15.14-8.21,21.3-14.36,6.15-6.15,10.98-13.32,14.36-21.3,3.49-8.26,5.27-17.03,5.27-26.08s-1.77-17.82-5.27-26.08c-3.37-7.98-8.21-15.14-14.36-21.3ZM380.41,134.7c-3.24,7.65-7.87,14.52-13.77,20.43-5.9,5.9-12.77,10.54-20.43,13.77-7.92,3.35-16.34,5.05-25.01,5.05s-17.09-1.7-25.01-5.05c-7.65-3.24-14.52-7.87-20.43-13.77-5.9-5.9-10.54-12.77-13.77-20.43-3.35-7.92-5.05-16.34-5.05-25.01s1.7-17.09,5.05-25.01c3.24-7.65,7.87-14.52,13.77-20.43,5.9-5.9,12.77-10.54,20.43-13.77,7.92-3.35,16.34-5.05,25.01-5.05s17.09,1.7,25.01,5.05c7.65,3.24,14.52,7.87,20.43,13.77,5.9,5.9,10.54,12.77,13.77,20.43,3.35,7.92,5.05,16.34,5.05,25.01s-1.7,17.09-5.05,25.01Z"/><circle class="cls-15" cx="323.3" cy="109.69" r="54.69" transform="translate(195.9 426.43) rotate(-86.83)"/><g class="cls-14"><path class="cls-8" d="M273.98,109.72c0,3.47.34,6.86.98,10.13,14.56,4.01,22.93-1.01,27.24-8.78,4.58-8.25-10.98-12.19-8.42-24.35,2.56-12.16,10.07-7.59,17.08-13.86,6.75-6.04,1.7-13.13,1.32-13.66-22.05,6.22-38.21,26.48-38.21,50.51Z"/><path class="cls-8" d="M305.06,124.59c-6.2,1.17-24.74,10.75-4.4,19.05,5.4,2.2-1.84,12.79,6.34,9.45,7.05-2.88,8.14-8.18,5.42-10.64-2.72-2.46,1.24-6.43,3.29-11.2,2.05-4.77-3.03-8.09-10.65-6.65Z"/><path class="cls-8" d="M353.42,65.39c-3.78,3.05-11.66,11.12-4.77,21.07,5.41,7.8,20.85,5.97,19.61,12.34-1.24,6.37-9.04,12.24-8.12,19.09.85,6.34,8.52,10.47,13.76,11.65,2.5-6.12,3.88-12.82,3.88-19.84,0-18.64-9.72-35.01-24.37-44.32Z"/><path class="cls-8" d="M361.55,135.31c-2.61,4.76.75,9.52,1.68,10.69,4-4.17,7.31-9.01,9.76-14.32-3.19.92-8.86-1.07-11.44,3.63Z"/><path class="cls-12" d="M347.5,166.99l-15.23-4.58s-16.2-8.3-18.07,8.56c-.35,3.19-.43,6.77-.32,10.48l36.89,1.14c.85.03,1.7.08,2.54.16.37-10.99-5.81-15.76-5.81-15.76Z"/><polygon class="cls-2" points="332.3 162.34 332.3 162.33 332.29 162.33 332.3 162.34"/><polygon class="cls-2" points="313.96 181.45 313.95 181.37 313.88 181.37 313.96 181.45"/><path class="cls-2" d="M353.29,180.58c-.02-.36-.03-.72-.07-1.08l-.05-.54c-.02-.18-.05-.36-.07-.54-.04-.36-.11-.71-.17-1.07-.03-.18-.07-.35-.1-.53-.04-.18-.07-.35-.11-.53l-.13-.53c-.04-.18-.1-.35-.14-.52-.09-.35-.21-.69-.32-1.04-.12-.34-.24-.68-.38-1.02l-.1-.25-.11-.25c-.07-.16-.14-.33-.22-.49-.08-.16-.15-.33-.24-.49l-.25-.48-.26-.47-.28-.47-.29-.46c-.1-.15-.2-.3-.31-.45-.21-.29-.43-.58-.66-.86-.23-.28-.47-.55-.72-.81-.25-.26-.51-.51-.79-.74h0s0,0,0,0l-15.21-4.62s0,0,0,0h-.01s0,0,0,0c-.66-.33-1.34-.6-2.03-.85-.69-.25-1.4-.47-2.11-.65-.71-.18-1.44-.32-2.17-.42-.37-.05-.73-.09-1.1-.11-.18-.01-.37-.02-.55-.03-.18,0-.37,0-.55,0-.37,0-.74.03-1.11.07-.37.04-.73.1-1.09.18-.36.08-.72.18-1.07.3-.35.12-.69.27-1.02.43-.66.34-1.28.75-1.83,1.26-.55.5-1.02,1.08-1.43,1.7-.41.62-.74,1.28-1.01,1.97-.27.69-.49,1.39-.66,2.11-.18.71-.3,1.44-.4,2.17-.02.18-.05.36-.07.55l-.05.55-.09,1.1c-.08.73-.1,1.46-.13,2.2l-.05,1.1c0,.37,0,.73-.01,1.1v1.1s-.02.55-.02.55v.55s.05,2.2.05,2.2v.08s.08,0,.08,0l18.45.52,9.22.27,9.22.27-9.22-.29-9.22-.3-18.37-.62v.08s-.08-.08-.08-.08h.08s-.03-2.12-.03-2.12v-.55s0-.55,0-.55v-1.1c.02-.37.02-.73.03-1.1l.05-1.1c.04-.73.06-1.46.14-2.19l.1-1.09.05-.55c.02-.18.05-.36.07-.54l.04-.27.04-.27c.03-.18.06-.36.09-.54l.11-.54c.04-.18.08-.35.12-.53.17-.71.39-1.41.66-2.08.27-.67.6-1.33,1-1.93.4-.61.86-1.17,1.39-1.66.53-.49,1.14-.9,1.78-1.23.32-.16.66-.31,1-.42.34-.12.69-.22,1.05-.3.35-.08.71-.14,1.07-.18.36-.04.72-.07,1.09-.07.18,0,.36,0,.55,0,.18,0,.36,0,.55.02.36.02.73.06,1.09.1.72.09,1.44.24,2.15.41.71.18,1.41.39,2.09.64.69.25,1.37.52,2.02.84h0s0,0,0,0l15.23,4.53s0,0,0,0h.01s0,0,0,0c.28.22.54.47.79.73.25.26.49.53.72.81.23.28.45.57.66.86.11.15.21.3.31.44l.29.45.28.46.27.47.25.48c.08.16.16.32.24.49.08.16.15.33.22.49l.11.25.1.25c.14.33.26.67.38,1.01.11.34.23.68.32,1.03.05.17.1.35.14.52l.13.53c.05.17.08.35.11.53.03.18.08.35.11.53.06.36.13.71.17,1.07.02.18.05.36.07.54l.05.54c.04.36.05.72.07,1.08.01.18.01.36.02.54v.54c.01.36,0,.72,0,1.08h0s0,0,0,0c0,0,0,0,0,0l-1.27-.1-1.27-.06,1.27.06,1.27.1h0s0,0,0,0c0-.36.02-.72.02-1.08v-.54c-.01-.18-.01-.36-.03-.54Z"/><polygon class="cls-2" points="347.48 167.01 347.48 167.02 347.49 167.02 347.48 167.01"/><polygon class="cls-2" points="353.3 182.75 353.3 182.74 353.3 182.75 353.3 182.75"/><path class="cls-13" d="M325.37,112.07c-1.36.96-3.19,8.71-3.19,8.71l13.42-5.77c-5.34-4.09-8.87-3.9-10.23-2.94Z"/><path class="cls-3" d="M362.42,91.35c-.92-2.95.23-6.02,1.1-8.83.45-1.45.52-3.12.17-4.59-.35-1.48-1.03-2.5-1.7-3.81,0,0-4.57-6.38-11.36-4.29-5.53,1.59-9,8.75-4.35,10.87,1.04.47.17,5,.24,6.03.17,2.69.37,5.22.12,7.91-.18,1.92-.84,3.87-1.35,5.71-1.12,4.06-1.1,8.04-1.16,12.26,1.02-1.98,2.34-4.46,2.65-6.78-.03,1.43.36,3.03.55,4.37.33,2.35,1.83,4.54,3.09,6.51,1.28,2,2.84,3.78,4.69,5.26.67.54,1.45,1.15,2.04,1.87.06,0,.12,0,.18.01.22.02.44.06.66.1.27-1.33,1.25-2.46,2.21-3.41,2.38-2.37,5.21-4.58,6.43-7.8,1.44-3.78,1.07-7.82-.08-11.62-1.01-3.38-3.05-6.38-4.11-9.78Z"/><path class="cls-13" d="M344.65,115.77l-9.57-1.29s-6.37,1.06-12.9,6.3c-6.53,5.24-13.43,13.78-10.7,20.14,2.72,6.36,3.09,11.6,3.09,11.6,0,0-1.12,6.07-1.93,19.45,6.46,1.67,11.83,1.83,16.2,1.19-.38-.77-.59-1.65-.39-2.56l13.22-10.79-3.27-5.88,4.93-16.96v21.49l-1.66,1.35,2.89,5.19s-4.75,6.57-15.72,8.17c.78,1.58,2.25,2.7,2.25,2.7,0,0,13.72-6.08,18.87-10.83.86-3.42,6.78-42.25,7.52-48.99.74-6.74-12.83-.26-12.83-.26Z"/><path class="cls-1" d="M344.57,164.99l-2.89-5.19-13.22,10.79c-.21.91,0,1.79.39,2.56,10.98-1.6,15.72-8.17,15.72-8.17Z"/><path class="cls-2" d="M315.93,153.2c-.07-.68-.17-1.32-.26-1.9-.19-1.17-.39-2.14-.52-2.82-.07-.34-.13-.61-.16-.79-.04-.18-.06-.28-.06-.28,0,0,.07.39.18,1.07.06.34.13.76.2,1.23.08.48.16,1.01.24,1.6.08.59.17,1.22.23,1.9.02.17.02.34.04.51,0,.17.01.34,0,.52,0,.36-.01.72-.02,1.09-.02,1.48-.04,3.07-.07,4.65-.01,1.58-.03,3.17-.04,4.65-.01,1.48,0,2.87-.02,4.06,0,1.19,0,2.18,0,2.87,0,.69,0,1.09,0,1.09,0,0,.01-.4.03-1.09.02-.69.05-1.68.07-2.87.02-1.19.06-2.57.08-4.06.02-1.48.04-3.07.07-4.65.01-1.58.03-3.17.04-4.65,0-.37,0-.74,0-1.09,0-.18,0-.36-.01-.53-.02-.17-.03-.35-.05-.52Z"/><path class="cls-12" d="M328.38,171.41l-3.24,2.08s-5.55,3.07-5.72,3.89c-.12.6,1.2,2.69,2.64,4.33l5.81.18c.99-.92,1.8-2.02,2.09-2.83l1.14-3.2s-2.79-3.64-2.72-4.45Z"/><path class="cls-2" d="M325.09,173.39h0s0,0,0,0Z"/><path class="cls-2" d="M319.51,177.4h0s0,0,0,0c0,.01,0,0,0,0Z"/><path class="cls-2" d="M322.11,181.66s-.01-.01-.02-.02h-.03s.04.02.04.02Z"/><path class="cls-2" d="M329.64,173.67c-.24-.36-.48-.73-.69-1.11-.05-.09-.11-.19-.16-.28-.05-.1-.1-.19-.14-.29-.05-.1-.09-.2-.12-.29-.03-.1-.06-.2-.05-.28l.02-.19-.16.1-1.68,1.07-.84.54-.42.27-.21.13-.05.03-.03.02h-.01s0,0,0,0h0s0,0,0,0h0s0,0,0,0l-.11.06c-.58.32-1.16.66-1.73,1-.57.34-1.14.69-1.7,1.05-.28.18-.56.37-.83.56-.27.19-.54.39-.8.6-.13.11-.26.22-.37.35-.06.07-.11.13-.16.22-.06.1-.06.2-.05.29.02.18.08.34.14.5.06.16.14.31.21.46.16.3.33.58.51.87.18.28.37.56.57.82.39.54.81,1.06,1.26,1.56l.02.02h.03s1.45.04,1.45.04l1.45.03,1.45.03,1.45.02-1.45-.07-1.45-.06-1.45-.06-1.42-.05s.01.01.02.02l-.04-.02h.03c-.43-.49-.83-1.01-1.21-1.54-.38-.54-.74-1.1-1.04-1.68-.07-.15-.14-.29-.2-.45-.06-.15-.11-.31-.13-.45,0-.02,0-.04,0-.05,0-.02,0-.03,0-.05h0s0-.02,0-.02h0s0,0,0,0c0,0,0,0,0,0h0s0-.03,0-.03c0-.02.01-.02.02-.04.03-.06.08-.12.14-.18.11-.12.23-.23.36-.33.25-.21.52-.4.79-.59.27-.19.55-.37.83-.55,1.12-.72,2.27-1.38,3.42-2.03l.11-.06h.02s.01-.02.01-.02l.03-.02.05-.03.21-.14.42-.27.84-.54,1.54-1c-.01-.05-.02-.11-.01-.17l.15.09-.13.09c.01.06.03.13.05.19.04.11.08.21.13.31.05.1.1.2.15.3.05.1.11.19.16.29.22.38.46.75.71,1.11.49.71,1,1.41,1.52,2.1v-.04s.02.07.02.07c0-.01-.02-.02-.02-.03l-.56,1.6-.29.82-.14.41c-.05.14-.09.28-.14.41l-.08.2c-.03.07-.06.13-.09.19l-.1.19-.11.18c-.04.06-.07.12-.11.18l-.12.18-.12.18-.13.17-.13.17c-.04.06-.09.11-.14.17-.09.11-.18.22-.28.33-.1.11-.19.22-.29.32l-.31.31.32-.3c.1-.1.2-.21.3-.31.1-.1.19-.21.29-.32.05-.05.1-.11.14-.16l.14-.17.14-.17.13-.18.13-.18c.04-.06.08-.12.12-.18l.12-.18.1-.19c.07-.13.13-.26.19-.39.06-.14.1-.27.15-.41l.15-.41.3-.81.59-1.63v-.04s-.01-.03-.01-.03c-.52-.7-1.03-1.41-1.51-2.14Z"/><path class="cls-2" d="M328.29,171.4c0,.06,0,.12.01.17l.13-.09-.15-.09Z"/><path class="cls-2" d="M331.03,175.83v.04s0,.02.01.03v-.07Z"/><path class="cls-2" d="M331.16,175.78s-.03-.02-.04-.03c-.02,0-.03.02-.05.02h.09Z"/><path class="cls-2" d="M328.52,170.68l.03-.02s0-.02,0-.03l-.03.05Z"/><path class="cls-2" d="M348.93,165.91l-.54.41c-.18.14-.37.27-.55.4-.18.14-.37.26-.56.39l-.28.19-.28.19c-.38.25-.76.5-1.14.74-.39.24-.77.48-1.16.71-.39.24-.78.46-1.18.69-.4.22-.79.45-1.19.67-.4.22-.8.44-1.19.66-1.6.86-3.22,1.69-4.85,2.49-.82.4-1.64.79-2.46,1.18-.81.38-1.61.75-2.43,1.12.01.01.03.02.04.03h-.09s.03-.03.05-.03c-.08-.07-.17-.14-.25-.21-.1-.08-.19-.17-.28-.26-.18-.18-.36-.36-.53-.55-.08-.1-.17-.19-.25-.29-.08-.1-.16-.2-.23-.3-.08-.1-.15-.21-.22-.31-.07-.11-.14-.21-.2-.32-.03-.05-.06-.11-.09-.17-.03-.06-.06-.11-.09-.17l-.08-.17-.08-.17c-.03-.06-.05-.12-.07-.18-.02-.06-.04-.12-.06-.18-.04-.12-.07-.24-.1-.36-.02-.12-.05-.25-.06-.37-.02-.12-.02-.25-.03-.37,0-.12,0-.25.02-.37,0-.11.03-.23.05-.34l-.03.02.03-.05s0,.02,0,.03l3.7-3.01,3.72-3.04,7.43-6.08.03-.03v-.04s-.03-10.75-.03-10.75l-.03-5.37-.03-5.37-.03,5.37-.03,5.37-.03,10.7.03-.03-.03.07v-.04s-7.41,6.04-7.41,6.04l-3.72,3.04-3.72,3.04-.03.02v.03c-.03.13-.06.26-.07.39-.02.13-.02.26-.02.4,0,.13,0,.26.03.4.01.13.04.26.07.39.03.13.06.26.11.38.02.06.04.12.07.19.02.06.04.12.07.18l.08.18.09.18c.03.06.06.12.09.17.03.06.06.11.1.17.07.11.14.22.21.33.07.11.15.21.23.32.08.1.16.21.24.31.08.1.17.2.25.3.17.19.35.38.54.56.09.09.19.18.29.26.1.09.2.17.3.25l.04.03.05-.02c1.66-.75,3.3-1.53,4.93-2.35,1.63-.81,3.24-1.65,4.84-2.53.4-.22.8-.44,1.19-.67.4-.22.79-.45,1.18-.68.39-.23.78-.46,1.17-.7.39-.24.77-.48,1.16-.72.38-.25.76-.5,1.14-.75l.28-.19.28-.2c.19-.13.37-.26.55-.4.18-.14.37-.27.55-.41l.54-.42.52-.44.51-.45-.51.45-.53.43Z"/><polygon class="cls-2" points="343.28 158.38 343.25 158.41 343.25 158.45 343.28 158.38"/><path class="cls-3" d="M335.09,114.48c-3.2.91-12.19,6.61-17.69,13.73-5.49,7.12-2.48,19.2-2.48,19.2,0,0,.7-7.62,10.7-11.66,10-4.04,19.04-19.98,19.04-19.98,0,0-6.37-2.2-9.57-1.29Z"/><path class="cls-11" d="M331.68,121.1c-.53.26-1.11.57-1.73.94-.62.37-1.27.8-1.94,1.29-.66.5-1.36,1.03-2.03,1.63-.68.59-1.35,1.24-2.02,1.92-.65.69-1.3,1.41-1.9,2.16l-.45.56c-.15.19-.29.38-.44.57-.14.19-.29.38-.43.57-.14.2-.27.39-.41.58-.14.19-.27.39-.41.58-.13.2-.25.39-.38.59-.13.2-.25.39-.37.58-.13.19-.24.39-.35.58-.12.19-.23.39-.34.58-.06.1-.11.19-.17.28-.05.1-.1.19-.16.29-.21.38-.41.75-.61,1.12-.37.74-.73,1.43-1.02,2.09-.15.33-.29.64-.43.94-.13.3-.24.59-.35.86-.11.27-.21.52-.31.76-.09.23-.17.45-.24.65-.14.39-.25.7-.33.92-.07.21-.11.32-.11.32,0,0,.05-.11.15-.31.1-.2.24-.5.42-.87.09-.19.19-.4.3-.62.12-.22.24-.47.37-.73.13-.26.27-.54.42-.83.15-.29.31-.59.48-.9.08-.16.17-.32.26-.48.09-.16.18-.33.28-.49.19-.33.38-.68.58-1.04.21-.35.43-.71.65-1.08.06-.09.11-.18.17-.28.06-.09.12-.18.18-.28.12-.18.24-.37.36-.56.12-.19.24-.38.36-.56.13-.19.25-.38.38-.56.13-.19.26-.38.39-.57.13-.19.27-.38.41-.57.14-.19.27-.38.41-.57.14-.19.29-.37.43-.56.14-.19.28-.38.43-.56l.45-.55c.59-.74,1.22-1.44,1.85-2.13.16-.17.32-.33.48-.5.16-.16.31-.34.48-.49.33-.32.64-.64.97-.94.65-.61,1.3-1.16,1.93-1.68.32-.25.63-.5.94-.72.3-.23.61-.44.9-.65.15-.1.29-.2.43-.29.14-.1.28-.19.42-.27.14-.09.27-.17.4-.25.13-.08.26-.16.38-.23.5-.29.94-.54,1.31-.72.37-.19.67-.33.88-.41.21-.09.32-.13.32-.13,0,0-.47.1-1.25.41-.39.15-.86.35-1.39.61Z"/><path class="cls-6" d="M337.16,104.57c-.13,5.15-2.82,15.4-2.82,15.4,3.88.02,8.98-3.55,8.98-3.55l-.73-19.36-5.43,7.51Z"/><path class="cls-1" d="M320.46,92.98c-.95-.05-3.36,5.82,1.65,5.98l.64-2.79s-1.34-3.15-2.28-3.19Z"/><path class="cls-12" d="M350.93,81.61c-.02-.34-.06-.67-.1-1.01-.04-.33-.1-.67-.17-1h0c-.02-.07-.04-.1-.06-.15-.02-.04-.05-.08-.08-.13-.06-.08-.11-.16-.18-.23-.12-.15-.26-.28-.4-.41-.14-.13-.28-.25-.43-.37l-.22-.18c-.07-.06-.15-.11-.22-.17-.15-.11-.3-.23-.45-.33l-.46-.32-.47-.31c-.16-.1-.31-.2-.47-.3l-.48-.29c-.16-.1-.32-.19-.48-.29l-.48-.28c-.16-.09-.33-.18-.49-.27l-.49-.27c-.16-.09-.33-.18-.49-.27l-.99-.52.97.56c.16.09.32.18.48.28l.48.28c.16.1.32.19.48.29l.47.29c.16.1.32.19.47.29l.47.3c.16.1.31.2.46.31l.46.31.45.33c.15.11.3.22.44.34.07.06.15.11.22.17l.21.18c.14.12.28.24.42.37.13.13.26.26.38.39.06.07.11.14.17.21.02.04.05.07.07.11l.03.06s0,.02,0,.03h0s0,.01,0,.01h0c.07.33.12.66.16.99.04.33.07.66.1,1,.02.33.04.67.05,1,0,.33,0,.67,0,1,0,.33-.02.67-.05,1,0,.17-.03.33-.04.5-.01.17-.04.33-.06.5l-.03.25-.04.25c-.03.16-.05.33-.08.49l-.09.49-.11.49c-.03.16-.08.32-.12.48l-.06.24-.07.24c-.05.16-.09.32-.15.48l-.16.47c-.05.16-.12.31-.18.47l-.09.23c-.03.08-.07.15-.1.23l-.2.46-.22.45c-.07.15-.16.3-.24.44-.08.14-.16.29-.25.44-.18.28-.35.57-.54.84-.1.14-.19.28-.29.41l-.31.4c-.1.13-.21.26-.32.39l-.33.38.34-.37.17-.19c.06-.06.11-.13.16-.19l.32-.39c.11-.13.2-.27.3-.4.21-.27.38-.55.57-.83.09-.14.17-.29.26-.43.09-.14.17-.29.25-.44l.23-.45.21-.46c.04-.08.07-.15.11-.23l.1-.23c.06-.16.13-.31.19-.47l.17-.47c.06-.16.1-.32.16-.48l.08-.24.07-.24c.04-.16.09-.32.13-.49l.11-.49.1-.5c.04-.16.06-.33.09-.5l.04-.25.03-.25c.02-.17.05-.33.06-.5.02-.17.04-.34.05-.5.03-.34.04-.67.06-1.01,0-.17,0-.34,0-.51,0-.17,0-.34,0-.51-.01-.34-.02-.67-.05-1.01Z"/><path class="cls-3" d="M343.33,74.53c-13.35-6-19.39,2.83-19.39,2.83l-1.04,10.25,19.98,13.06,3.75-6.03c5.92-6.33,3.94-15.02,3.94-15.02,0,0-.14-1.27-7.24-5.09Z"/><path class="cls-12" d="M349.68,78.44c-1.21-1.05-3.39-2.43-6.31-4-3.06-1.38-5.99-2.08-8.7-2.1-2.18-.02-4.22.41-6.08,1.26-3.17,1.45-4.72,3.68-4.73,3.7l-.02.02-1.04,10.28.21.02,1.03-10.22c.17-.23,1.69-2.26,4.64-3.61,1.8-.82,3.78-1.24,5.88-1.24.04,0,.08,0,.11,0,2.69.02,5.58.72,8.6,2.08,6.86,3.7,7.18,4.96,7.19,5.01h0s.49,2.21.25,5.12c-.22,2.69-1.13,6.57-4.16,9.81h0s-3.75,6.05-3.75,6.05l.18.11,3.74-6.02c3.07-3.29,3.99-7.22,4.21-9.94.24-2.9-.23-5.07-.25-5.17-.01-.07-.12-.42-.99-1.17Z"/><path class="cls-1" d="M337.18,102.54l-.42,5.89s6.45-4.21,5.05-8.62-4.63,2.73-4.63,2.73Z"/><path class="cls-6" d="M324.92,79.9s-2.91,10.66-3.71,15.96c-.81,5.3,1.86,9.39,9.59,10.76,0,0,8.91-.02,11.14-7.08,2.23-7.06,1.26-14.8,1.26-14.8,0,0-8.1-11.86-18.28-4.84Z"/><path class="cls-6" d="M346.33,91.37c-2.27-1.51-4.54,2.9-4.54,2.9l-.43,3.76c5.55,3.73,7.24-5.14,4.97-6.65Z"/><path class="cls-11" d="M344.19,97.56c-.93,0-1.68.75-1.68,1.68s.75,1.68,1.68,1.68,1.68-.75,1.68-1.68-.75-1.68-1.68-1.68Z"/><path class="cls-11" d="M319.33,96.11c-.93,0-1.68.75-1.68,1.68s.75,1.68,1.68,1.68,1.68-.75,1.68-1.68-.75-1.68-1.68-1.68Z"/><path class="cls-1" d="M327.29,92.41s.09,2.92,1.99,3.82l1.81-6.74s-1.34,3.01-1.69,4.32c-1.78-1.43-2.1-1.4-2.1-1.4Z"/><path class="cls-1" d="M328.26,101.17c1,1.68,4.93,2.54,4.93-1.76-3.82-2.87-4.93,1.76-4.93,1.76Z"/><path class="cls-2" d="M333.75,99.19c-.18.11-.37.22-.56.33-.2.11-.4.22-.61.34-.21.11-.42.22-.64.33-.22.11-.43.21-.65.3-.22.09-.43.18-.65.26-.11.04-.21.07-.31.11-.1.04-.2.06-.3.09-.1.03-.2.05-.29.08-.09.03-.19.04-.27.06-.09.02-.17.03-.25.04-.08.01-.16.02-.23.03-.07,0-.14.01-.2.02-.06,0-.12,0-.17,0-.11,0-.19,0-.25,0-.06,0-.09,0-.09,0,0,0,.03,0,.09.01.03,0,.06.01.1.02.04,0,.09.02.14.02.05,0,.11,0,.18.01.06,0,.13,0,.21,0,.07,0,.15,0,.24,0,.08,0,.17-.01.26-.02.18-.02.38-.06.59-.1.1-.02.21-.05.31-.08.11-.03.22-.06.32-.1.11-.03.22-.07.33-.11.11-.04.22-.08.33-.13.22-.09.45-.19.67-.3.22-.11.44-.22.65-.34.21-.12.41-.24.61-.36.2-.12.38-.24.55-.36.17-.12.34-.23.48-.34.59-.43.95-.76.95-.76,0,0-.4.27-1.02.66-.15.1-.32.2-.5.31Z"/><path class="cls-2" d="M342.63,96.17c.04-.05.08-.11.12-.16-.07,0-.14,0-.21.01l.09.15Z"/><path class="cls-2" d="M345.72,93.68c-.09,0-.18.01-.28.03-.09.01-.18.04-.27.06-.09.03-.18.06-.26.09l-.26.11-.25.13c-.08.05-.16.1-.24.15-.08.05-.15.11-.23.16-.07.06-.15.11-.22.17l-.21.19c-.07.06-.13.13-.2.2l-.19.2c-.06.07-.12.14-.18.21-.06.07-.12.14-.17.22-.11.15-.21.3-.32.45l-.12.18.21-.02c.1-.01.2-.02.3-.02.05,0,.1,0,.14,0,.05,0,.09,0,.14.02.04,0,.08.02.11.04.02.02.04.04.04.07,0,.03,0,.07-.02.12,0,.02-.02.04-.03.06,0,.02-.02.04-.04.06-.02.04-.05.08-.08.12-.03.04-.06.08-.09.12-.07.08-.14.15-.21.22-.14.14-.29.28-.45.42.17-.11.34-.23.5-.36.08-.07.16-.13.23-.21.04-.04.07-.07.11-.11.04-.04.07-.08.1-.12.02-.02.03-.04.05-.07.02-.02.03-.05.04-.07.03-.05.04-.11.04-.18,0-.07-.04-.15-.09-.19-.05-.04-.11-.07-.17-.08-.06-.02-.11-.02-.17-.03-.05,0-.11,0-.16,0-.03,0-.07,0-.1,0-.04.05-.08.11-.12.16l-.09-.15c.07,0,.14,0,.21-.01.07-.09.13-.18.2-.27.06-.07.11-.14.17-.21l.17-.21.18-.2c.06-.07.12-.13.19-.19l.19-.19c.06-.06.14-.12.2-.18.07-.06.14-.12.21-.17.07-.05.14-.11.22-.16l.23-.14.24-.13c.08-.04.16-.07.25-.11.09-.03.17-.06.26-.08.09-.03.18-.04.26-.06.09-.01.18-.03.27-.02-.09-.02-.18-.02-.28-.02Z"/><path class="cls-3" d="M334.11,85.43l5.41,1.25c-2.21-5.06-5.41-1.25-5.41-1.25Z"/><path class="cls-3" d="M324.83,86.12l4.46-.5s-2.63-4.14-4.46.5Z"/><path class="cls-2" d="M343.54,130.38s-.05.41-.09,1.03c-.02.31-.05.67-.06,1.05,0,.19-.02.39-.03.59,0,.2-.01.41-.02.61,0,.21-.01.41-.02.61,0,.2,0,.4,0,.59,0,.39,0,.75,0,1.05,0,.62.03,1.03.03,1.03,0,0,.05-.41.09-1.03.02-.31.05-.67.06-1.05,0-.19.02-.39.03-.59,0-.2.02-.41.02-.61,0-.21.01-.41.02-.61,0-.2,0-.4,0-.59,0-.39,0-.75,0-1.05,0-.62-.03-1.03-.03-1.03Z"/><path class="cls-2" d="M329.7,116.18c-.09.04-.18.07-.27.11-.1.04-.19.09-.3.14-.21.1-.43.2-.66.32-.12.06-.24.12-.36.18-.12.06-.24.13-.37.2-.13.07-.25.14-.38.21-.13.07-.26.15-.39.22-.26.15-.52.31-.78.46-.26.16-.52.32-.77.48-.25.16-.5.32-.74.48-.47.32-.91.62-1.28.88-.37.26-.68.49-.89.65-.11.08-.19.14-.25.19-.06.04-.09.07-.09.07,0,0,.52-.32,1.29-.8.39-.24.84-.52,1.32-.83.24-.15.49-.31.74-.46.25-.16.51-.32.77-.47.26-.16.52-.32.77-.47.13-.08.25-.15.38-.23.13-.07.25-.15.37-.22.24-.14.48-.28.71-.41.23-.13.44-.25.64-.35.2-.11.38-.2.55-.29.16-.08.31-.16.43-.21.24-.11.38-.17.38-.17,0,0-.14.05-.4.13-.13.04-.28.1-.45.17Z"/><path class="cls-3" d="M326.81,88.57c-.66-.16-1.37.42-1.58,1.29-.21.87.16,1.71.82,1.87.66.16,1.37-.42,1.59-1.29.21-.87-.16-1.71-.82-1.87Z"/><path class="cls-2" d="M329.15,90.35s-.03-.09-.05-.14c-.02-.05-.04-.1-.07-.16-.05-.11-.12-.24-.21-.37-.09-.13-.19-.26-.32-.39l-.05-.05-.05-.05s-.07-.06-.1-.09l-.05-.05-.06-.04s-.08-.06-.12-.09c-.08-.06-.17-.1-.26-.15-.09-.05-.18-.09-.28-.13-.1-.03-.19-.07-.3-.1l-.15-.04-.08-.02h-.08c-.1-.02-.21-.04-.31-.04h-.16c-.05,0-.1,0-.15,0-.05,0-.1,0-.15.01-.05.01-.1.02-.15.03-.05.01-.1.02-.15.03-.05.02-.09.03-.14.05-.19.06-.35.16-.5.26-.07.05-.14.11-.21.16-.06.06-.12.11-.17.17-.05.06-.1.11-.14.17-.04.06-.08.11-.11.16-.07.1-.12.2-.15.28-.04.08-.06.15-.08.19-.02.05-.02.07-.02.07,0,0,.04-.09.14-.24.05-.07.11-.16.18-.26.04-.05.08-.1.13-.15.04-.05.1-.1.15-.15.05-.05.12-.1.18-.15.06-.05.13-.09.2-.14.15-.08.3-.16.48-.21.04-.01.09-.03.13-.04.04-.01.09-.02.13-.03.04,0,.09-.02.14-.02.05,0,.1,0,.15-.01.05,0,.1,0,.14,0h.14c.1,0,.19.02.29.03h.07s.07.02.07.02l.14.03c.09.02.18.06.28.09.09.04.18.07.26.11.08.05.17.08.24.13.04.02.07.05.11.07l.06.04.05.04s.07.06.11.08l.05.04.05.04c.13.11.23.23.33.35.09.12.17.23.23.33.03.05.06.1.08.15.02.05.04.09.06.13.04.08.06.15.08.19.02.04.03.07.03.07,0,0,0-.02-.02-.07-.01-.05-.02-.12-.05-.2Z"/><path class="cls-3" d="M335.78,88.94c-.7-.18-1.46.42-1.7,1.34-.24.92.14,1.82.84,2,.7.18,1.46-.42,1.7-1.34.24-.92-.14-1.82-.84-2Z"/><path class="cls-2" d="M337.88,90.01s-.05-.08-.07-.13c-.03-.05-.06-.09-.1-.14-.07-.1-.16-.21-.27-.32-.11-.11-.24-.22-.39-.32l-.06-.04-.06-.04s-.08-.05-.12-.07l-.06-.03-.07-.03s-.09-.04-.13-.06c-.09-.04-.19-.07-.28-.1-.1-.03-.2-.05-.3-.07-.1-.01-.2-.03-.31-.04h-.16s-.08,0-.08,0h-.08c-.1.01-.21.02-.31.04l-.15.03c-.05.01-.1.03-.15.04-.05.01-.1.03-.14.04-.05.02-.1.04-.14.06-.05.02-.1.04-.14.06-.04.02-.09.05-.13.07-.17.1-.32.22-.45.35-.06.07-.12.13-.17.2-.05.07-.1.13-.14.2-.04.07-.08.13-.11.19-.03.06-.06.12-.08.18-.05.12-.08.22-.1.31-.02.09-.03.16-.04.2,0,.05,0,.07,0,.07,0,0,.02-.1.09-.26.03-.08.07-.18.13-.29.03-.05.06-.11.1-.17.03-.06.07-.12.12-.18.04-.06.09-.12.14-.18.05-.06.11-.12.17-.17.13-.11.27-.22.43-.3.04-.02.08-.04.12-.06s.08-.03.13-.05c.04-.02.09-.03.13-.05.05-.01.1-.03.14-.04.05-.01.09-.02.14-.04l.14-.02c.09-.02.19-.02.29-.03h.07s.07,0,.07,0h.15c.1,0,.19.02.29.03.09.02.19.04.28.06.09.03.18.05.26.09.04.02.08.03.12.05l.06.03.06.03s.08.04.12.06l.06.03.05.03c.15.09.27.18.39.28.11.1.21.19.29.28.04.05.08.09.11.13.03.04.06.08.09.11.05.07.09.13.12.17.03.04.04.06.04.06,0,0-.01-.02-.03-.07-.02-.04-.04-.11-.09-.19Z"/></g><circle class="cls-10" cx="221.94" cy="104.9" r="98.11"/><path class="cls-7" d="M123.73,105.44c0,6.55.64,12.95,1.85,19.15,27.51,7.57,43.32-1.91,51.47-16.59,8.64-15.58-20.75-23.03-15.91-46,4.84-22.96,19.02-14.35,32.27-26.19,12.76-11.4,3.22-24.81,2.49-25.8-41.65,11.74-72.17,50.02-72.17,95.42Z"/><path class="cls-7" d="M182.43,133.53c-11.71,2.22-46.73,20.3-8.31,35.98,10.2,4.16-3.47,24.16,11.97,17.84,13.31-5.44,15.37-15.46,10.24-20.11-5.13-4.65,2.34-12.15,6.22-21.15,3.88-9.01-5.72-15.29-20.12-12.57Z"/><path class="cls-7" d="M273.79,21.71c-7.14,5.77-22.03,21.01-9.01,39.81,10.21,14.74,39.39,11.28,37.05,23.31-2.34,12.03-17.08,23.12-15.33,36.07,1.61,11.98,16.09,19.79,25.99,22.01,4.72-11.56,7.33-24.21,7.33-37.47,0-35.22-18.36-66.14-46.04-83.72Z"/><path class="cls-7" d="M289.15,153.78c-4.93,8.99,1.41,17.98,3.17,20.19,7.55-7.88,13.8-17.01,18.43-27.05-6.03,1.74-16.74-2.02-21.6,6.85Z"/><circle class="cls-4" cx="219.42" cy="102.38" r="77.92" transform="translate(-2.62 5.8) rotate(-1.51)"/><circle class="cls-12" cx="219.59" cy="102.07" r="62.05" transform="translate(-4.4 10.06) rotate(-2.6)"/><path class="cls-4" d="M176.87,75.91c-1.97-.35-3.89,1.18-4.28,3.41-.39,2.23.89,4.32,2.86,4.67,1.97.35,3.89-1.18,4.28-3.41.39-2.23-.89-4.32-2.86-4.67Z"/><path class="cls-4" d="M195.63,50.18c-9.45,2.19-16.06,9.11-18.95,18.18-1.77,5.56,7.17,7.17,8.92,1.67,1.94-6.1,6.92-9.87,12.98-11.27,5.7-1.32,2.68-9.88-2.95-8.58Z"/><path class="cls-11" d="M223.8,28.07s33.87,19.88,36.08,34.6c18.41-17.67,46.39-61.11,46.39-61.11l-42.7,45.65s-34.6-21.35-39.76-19.14Z"/><path class="cls-12" d="M300.1,40.55s26.07,1,17.31,22.44c-8.76,21.44-61.53,34.82-61.53,34.82,0,0,56.54-8.69,64.93-34.96,8.39-26.27-20.71-22.3-20.71-22.3Z"/><path class="cls-4" d="M300.1,40.55s6.09.23,11.4,2.9c.43-.03.86-.19,1.3-.23.49-.05.98-.03,1.47-.07.04,0,.08,0,.12,0,.55-.06,1.11-.12,1.66-.17-6.57-3.7-15.95-2.42-15.95-2.42Z"/><path class="cls-4" d="M316.91,45.42c-.68.01-1.35.13-2.03.22,2.62,2.2,4.48,5.35,4.32,9.84,1.03-.12,2.07-.21,3.11-.27.21-4.5-1.1-7.65-3.18-9.87-.74.03-1.48.06-2.22.07Z"/><path class="cls-4" d="M148.28,11.03c8.02-.47,17.14,1.73,23.76,3.83-13.01-4.49-34.72-10.8-31.26-1.52,3.92,10.52,20.5,23.13,26.91,27.71-8.5-6.68-32.26-29.26-19.41-30.01Z"/><path class="cls-4" d="M167.69,41.05c1.2.95,2.1,1.57,2.55,1.77,0,0-.96-.64-2.55-1.77Z"/><path class="cls-4" d="M172.04,14.86c5.38,1.86,9.27,3.4,9.27,3.4,0,0-3.78-1.66-9.27-3.4Z"/><path class="cls-12" d="M262.9,154.58c-50.1-1.67-91.56-20.26-91.56-20.26,0,0,42.71,23.06,99.12,22.89,56.41-.17,45.77-19.8,45.77-19.8,0,0,.53,18.96-53.33,17.17Z"/><path class="cls-5" d="M88.81,174.15c-5.69,3.94-7.1,11.74-3.17,17.42,3.94,5.69,11.74,7.1,17.42,3.17l58.67-40.89-14.26-20.59-58.67,40.89Z"/><path class="cls-4" d="M98.66,167.33c-4.72,3.27-5.35,10.52-1.41,16.21,3.94,5.69,10.95,7.65,15.67,4.38l43.36-30.27-14.36-20.67-43.26,30.35Z"/><rect class="cls-12" x="89.22" y="156.1" width="59.9" height=".95" transform="translate(-69.06 99.24) rotate(-35.78)"/><rect class="cls-12" x="89.57" y="160.81" width="62.49" height=".95" transform="translate(-71.52 101.14) rotate(-35.8)"/><rect class="cls-12" x="91.87" y="164.91" width="62.93" height=".95" transform="translate(-73.51 103.63) rotate(-35.87)"/><rect class="cls-12" x="94.98" y="168.62" width="62.4" height=".95" transform="translate(-74.94 105.35) rotate(-35.68)"/><rect class="cls-12" x="99.95" y="171.88" width="59.9" height=".95" transform="translate(-76.26 108.49) rotate(-35.78)"/><path class="cls-12" d="M185.69,64.62s-42.59,54.24-55.62,105.08c-15.52,60.54,36.72,2.58,36.72,2.58,0,0-44.81,49.58-30.48-3.45,15.32-56.7,49.39-104.21,49.39-104.21Z"/><path class="cls-4" d="M157.8,109.09c0,.39-.02.77-.06,1.15.16.62.27,1.25.33,1.9,13.93-28.42,27.62-47.52,27.62-47.52,0,0-13.82,17.6-28.12,42.14.15.76.23,1.54.23,2.33Z"/><path class="cls-4" d="M135.46,172.13c-.37.3-.75.59-1.14.86l-5.91,4.07c-9.31,48.15,38.39-4.79,38.39-4.79,0,0-42.89,47.45-31.33-.15Z"/><circle class="cls-10" cx="237.94" cy="86.29" r="3.42" transform="translate(67.17 273.09) rotate(-67.5)"/><circle class="cls-10" cx="249.33" cy="86.29" r="3.42" transform="translate(-10.6 41.05) rotate(-9.22)"/><circle class="cls-10" cx="260.72" cy="86.29" r="3.42" transform="translate(81.23 294.14) rotate(-67.5)"/><circle class="cls-10" cx="272.1" cy="86.29" r="3.42" transform="translate(-5.43 19.51) rotate(-4.07)"/><path class="cls-10" d="M237.94,94.26c-1.89,0-3.42,1.53-3.42,3.42s1.53,3.42,3.42,3.42,3.42-1.53,3.42-3.42-1.53-3.42-3.42-3.42Z"/><path class="cls-10" d="M249.33,94.26c-1.89,0-3.42,1.53-3.42,3.42s1.53,3.42,3.42,3.42,3.42-1.53,3.42-3.42-1.53-3.42-3.42-3.42Z"/><path class="cls-10" d="M260.72,94.26c-1.89,0-3.42,1.53-3.42,3.42s1.53,3.42,3.42,3.42,3.42-1.53,3.42-3.42-1.53-3.42-3.42-3.42Z"/><path class="cls-10" d="M272.1,94.26c-1.89,0-3.42,1.53-3.42,3.42s1.53,3.42,3.42,3.42,3.42-1.53,3.42-3.42-1.53-3.42-3.42-3.42Z"/><path class="cls-10" d="M237.94,105.65c-1.89,0-3.42,1.53-3.42,3.42s1.53,3.42,3.42,3.42,3.42-1.53,3.42-3.42-1.53-3.42-3.42-3.42Z"/><path class="cls-10" d="M249.33,105.65c-1.89,0-3.42,1.53-3.42,3.42s1.53,3.42,3.42,3.42,3.42-1.53,3.42-3.42-1.53-3.42-3.42-3.42Z"/><path class="cls-10" d="M260.72,105.65c-1.89,0-3.42,1.53-3.42,3.42s1.53,3.42,3.42,3.42,3.42-1.53,3.42-3.42-1.53-3.42-3.42-3.42Z"/><path class="cls-10" d="M272.1,105.65c-1.89,0-3.42,1.53-3.42,3.42s1.53,3.42,3.42,3.42,3.42-1.53,3.42-3.42-1.53-3.42-3.42-3.42Z"/><path class="cls-12" d="M193.59,111.1c-7.32-4.68-13.96,5.39-14.78,8.27,0,0-5.07,17.68-9.49,35.72l22.99.32c3.83-13.27,7.06-25.49,7.01-27.28-.11-3.81,1.59-12.35-5.73-17.03Z"/><path class="cls-2" d="M192.32,155.37h-.03s0,.02,0,.03l.04-.03Z"/><path class="cls-2" d="M197.1,114.45c-.44-.65-.95-1.26-1.52-1.8-.14-.14-.29-.27-.43-.4l-.22-.19c-.07-.07-.15-.12-.23-.18-.16-.12-.31-.24-.47-.36l-.49-.33c-.33-.22-.67-.42-1.02-.59-.35-.17-.72-.32-1.1-.44-.75-.23-1.55-.34-2.33-.29-.79.04-1.56.22-2.3.5-.74.28-1.43.66-2.08,1.11-.65.44-1.26.95-1.83,1.49-.57.54-1.1,1.13-1.6,1.74-.5.61-.96,1.25-1.38,1.92-.42.67-.81,1.35-1.12,2.08-.08.18-.15.37-.21.56-.06.19-.11.38-.16.57l-.32,1.13c-.22.75-.43,1.51-.64,2.26l-1.26,4.53-.63,2.27c-.21.76-.41,1.52-.61,2.27l-1.22,4.55-1.22,4.55c-.4,1.52-.78,3.04-1.16,4.56l-2.31,9.13-.03.11h.12s22.99.27,22.99.27h.03s0-.03,0-.03c.64-2.26,1.28-4.52,1.91-6.78.63-2.26,1.25-4.53,1.86-6.8.61-2.27,1.21-4.54,1.77-6.82.28-1.14.56-2.28.82-3.43.13-.57.25-1.15.36-1.72.06-.29.11-.58.15-.87.04-.29.09-.58.09-.88,0,.29-.04.59-.09.88-.05.29-.1.58-.15.87-.11.58-.24,1.15-.37,1.72-.26,1.15-.54,2.29-.82,3.43-.57,2.28-1.17,4.55-1.79,6.82-.31,1.13-.62,2.27-.93,3.4l-.95,3.39c-.64,2.25-1.28,4.5-1.94,6.74h.03s-.04.03-.04.03c0-.01,0-.02,0-.03l-22.83-.37-.03.11-.09-.12h.12s2.3-9.01,2.3-9.01l.58-2.28c.2-.76.38-1.52.58-2.28l1.21-4.55,1.21-4.55c.2-.76.4-1.52.61-2.27l.62-2.27,1.24-4.54c.21-.76.42-1.51.63-2.27l.32-1.13c.05-.19.1-.38.16-.57.06-.18.13-.37.2-.55.3-.72.68-1.4,1.1-2.07.42-.66.87-1.3,1.36-1.91.49-.61,1.02-1.19,1.58-1.73.56-.54,1.17-1.05,1.81-1.49.64-.44,1.33-.83,2.06-1.11.73-.28,1.5-.47,2.28-.51.78-.05,1.57.05,2.31.28.38.11.74.26,1.09.43.35.17.69.36,1.02.58l.49.33c.16.12.31.24.47.36.08.06.16.12.23.18l.22.19c.15.13.3.25.43.4.57.54,1.08,1.14,1.52,1.79.89,1.29,1.49,2.77,1.85,4.3.36,1.53.48,3.1.49,4.67,0,.78-.02,1.57-.05,2.35-.03.78-.06,1.57-.05,2.35-.02-.78.02-1.57.05-2.35.03-.78.05-1.57.05-2.35,0-1.57-.13-3.14-.48-4.67-.35-1.53-.96-3.01-1.84-4.31Z"/><polygon class="cls-2" points="169.42 155.12 169.45 155 169.33 155 169.42 155.12"/><path class="cls-12" d="M194.09,120.59c-7.56-6.77-15.13-1.7-17.3,3.75-2.17,5.45-3.3,13.49-3.3,13.49l14.39,17.52,3.9.05,5.27-18.27s4.6-9.78-2.96-16.55Z"/><path class="cls-2" d="M173.57,137.84s0-.02,0-.04l-.02-.03.02.07Z"/><polygon class="cls-2" points="187.89 155.34 187.88 155.33 187.87 155.33 187.89 155.34"/><path class="cls-2" d="M197.08,124.25c-.51-.99-1.16-1.9-1.91-2.72-.75-.82-1.59-1.55-2.5-2.2-.91-.64-1.9-1.17-2.95-1.54-1.05-.36-2.17-.57-3.28-.56-1.12.02-2.23.22-3.27.63-.13.05-.26.1-.39.15l-.38.18c-.13.06-.25.12-.37.19-.12.07-.25.13-.37.2-.24.15-.48.29-.7.45-.11.08-.23.16-.34.24l-.33.26c-.43.35-.85.72-1.23,1.13-.2.2-.37.41-.55.63-.09.11-.17.22-.26.33l-.13.17-.12.17c-.33.45-.61.93-.87,1.43l-.19.38c-.06.13-.11.25-.16.38-.03.06-.06.12-.08.19l-.07.19-.15.39-.15.39c-.05.13-.09.26-.13.39l-.26.79c-.16.53-.33,1.06-.47,1.59-.3,1.06-.57,2.14-.82,3.22-.25,1.08-.47,2.16-.67,3.25-.2,1.09-.39,2.18-.55,3.27v.04s.02.03.02.03l7.21,8.74,7.23,8.73h0s0,0,0,0l3.9.04-3.9-.07h0s-.01,0-.01,0h0s-7.16-8.78-7.16-8.78l-7.15-8.75s0,.02,0,.04l-.02-.07.02.03c.16-1.08.35-2.15.55-3.23.21-1.08.43-2.17.68-3.24.25-1.07.51-2.15.82-3.21.14-.53.31-1.06.48-1.58l.26-.78c.04-.13.09-.26.13-.39l.15-.39.15-.39.07-.19c.02-.06.05-.13.08-.19.06-.13.11-.25.17-.38l.18-.37c.25-.48.53-.96.86-1.4l.12-.17.13-.16c.08-.11.17-.22.25-.32.18-.21.35-.42.55-.61.37-.4.78-.77,1.21-1.11l.33-.25c.11-.08.22-.16.34-.24.22-.16.46-.3.69-.44.48-.27.97-.52,1.48-.7,1.02-.4,2.11-.6,3.2-.62,1.09-.02,2.18.18,3.22.54,1.03.36,2.01.88,2.91,1.51.9.63,1.73,1.36,2.47,2.17.74.81,1.38,1.71,1.89,2.68.51.97.88,2.01,1.12,3.08.23,1.07.33,2.17.32,3.27-.01.55-.04,1.1-.11,1.64-.03.27-.07.54-.11.82-.05.27-.09.54-.15.81-.11.54-.25,1.07-.41,1.6-.16.52-.35,1.05-.57,1.55h0s0,.01,0,.01l-2.61,9.14-2.6,9.15,2.67-9.12,2.66-9.12s0,0,0,0h0s0,0,0,0c.23-.51.41-1.03.58-1.55.17-.53.31-1.07.42-1.61.06-.27.11-.54.16-.82.04-.27.09-.55.12-.82.07-.55.1-1.11.12-1.66.02-1.11-.07-2.22-.31-3.31-.24-1.09-.62-2.14-1.13-3.13Z"/><polygon class="cls-2" points="197.11 137.16 197.11 137.16 197.12 137.15 197.11 137.16"/><path class="cls-13" d="M194.36,99.43s-13.33.21-17.81,9.88l-4.48,9.67,19.26,36.41,1.53.02c2.11-6.45,9.27-28.72,9.81-35.39.64-7.82,2.38-15.31-8.3-20.6Z"/><path class="cls-6" d="M213.85,99.1s-8.97-.84-15.65-.25c3.64,7.58,10.19,13.96,17.64,16.65,10.7,4.02,20.82-4.72,25.95-14.18-7.73-1.01-17.67-2.22-17.67-2.22h-10.27Z"/><path class="cls-13" d="M248.64,102.25c-1.64-.24-4.11-.58-6.86-.94-5.13,9.46-15.26,18.2-25.95,14.18-7.44-2.69-13.99-9.07-17.64-16.65-2.81.25-5.22.75-6.38,1.67-3.92,3.12-9.71,21.05-2.04,38.7,1.78,4.09,4.04,13.28,5.85,20.19,7.13,3.01,14.95,4.72,23.16,4.84,8.53.12,16.69-1.5,24.12-4.53.82-4.24,1.75-9.25,2.14-10.07,2.74-5.67,11.44-21.61,12.3-30.35.86-8.74-2.44-16.12-8.71-17.05Z"/><path class="cls-6" d="M218.21,72.31l-4.91,30.15s3.6,3.56,8.66,3.16c5.07-.4,8.8-3.67,8.8-3.67l-2.44-36.41c-8.19-2.78-10.12,6.78-10.12,6.78Z"/><path class="cls-1" d="M223.6,64.33c-4.05.12-5.36,6.46-5.36,6.46l-1.1,8.06c3.74-.49,10-11.7,10-11.7,0,0,.51-2.94-3.53-2.82Z"/><path class="cls-3" d="M207.68,42.35c-5.72,6.32-4.43,34.62-4.43,34.62l10.42,1.84.37-13.22s-.82,1.19-2.45.01c-1.62-1.18-2.21-6.77-.18-7.71,2.03-.94,2.73.76,2.73.76l1.11,19.42,2.19.03-2.63-20.18c18.22-3.18,19.61-16.33,19.61-16.33-.69-3.58-21.02-5.54-26.74.77Z"/><path class="cls-6" d="M232.37,57.43c-1.86-1.33-3.19.66-3.19.66,0,0,.02-3.59-.33-11.06-.35-7.48-8.79-7.86-16.8-6.49-8.01,1.37-7.93,14.83-9.01,20.9-1.08,6.07-.95,10.34,2.23,11.63,3.18,1.29,13.44-.78,13.44-.78,7.12-1.66,10.12-6.78,10.12-6.78,0,0,1.3,1.53,3.34.34,2.04-1.19,2.05-7.11.19-8.43Z"/><path class="cls-3" d="M207.87,53.27c-.77-.14-1.55.57-1.73,1.58-.19,1.01.29,1.95,1.06,2.09.77.14,1.55-.57,1.73-1.58.19-1.01-.29-1.95-1.06-2.09Z"/><path class="cls-2" d="M209.76,54.48s-.02-.05-.03-.07c-.01-.03-.03-.05-.04-.08-.02-.04-.04-.09-.06-.13l-.03-.07s-.03-.05-.05-.07c-.03-.05-.07-.1-.1-.15-.03-.05-.07-.1-.11-.14-.04-.04-.08-.09-.11-.14-.08-.09-.17-.17-.26-.25-.1-.07-.19-.16-.29-.22l-.16-.1-.08-.05-.08-.04c-.11-.05-.22-.11-.34-.14-.06-.02-.12-.04-.18-.06h-.03s0,0,0,0h0s0,0,0,0h-.02s-.04-.01-.04-.01l-.08-.02c-.05-.01-.11-.02-.16-.03-.07,0-.13-.01-.2-.02-.06,0-.13-.01-.19-.01-.06,0-.12,0-.18,0-.24.01-.46.07-.66.14-.1.04-.19.08-.28.13-.08.05-.17.09-.24.15-.07.05-.14.1-.2.16-.06.05-.12.11-.16.16-.1.1-.17.21-.23.29-.06.08-.09.16-.11.2-.02.05-.03.08-.03.08,0,0,.02-.02.07-.04.04-.03.11-.07.19-.11.08-.05.18-.1.3-.15.03-.01.06-.03.09-.04.03-.01.06-.02.1-.04.06-.03.13-.05.21-.07.07-.03.15-.04.22-.06.08-.02.16-.03.24-.04.16-.02.33-.03.5,0,.04,0,.09,0,.13.01.04,0,.08.02.12.02.04,0,.08.01.12.02.05.01.1.03.15.04l.08.02h.04s.02.02.02.02h0s0,0,0,0h0s-.01,0-.02,0c.04.02.09.03.13.05.09.03.17.07.26.11l.06.03.06.04.12.07c.08.05.15.1.23.16.04.03.07.06.11.09.04.03.08.05.11.09.03.03.07.06.1.09.03.03.07.06.09.09.03.03.06.06.09.09l.04.05.05.06s.06.08.09.12l.02.03h.01s0,.02,0,.02c0,0-.01-.02,0-.01h0s0,0,0,0l.04.05c.1.14.18.28.26.41.07.14.13.26.18.38.02.06.05.12.07.17.02.05.03.1.05.15.03.09.05.17.06.22.02.05.02.08.02.08,0,0,0-.03.02-.08,0-.03.02-.06.03-.09.01-.04.02-.08.03-.13,0-.05.02-.11.02-.17,0-.06,0-.13.01-.2,0-.14,0-.31-.04-.48-.03-.17-.08-.36-.16-.55Z"/><path class="cls-12" d="M218.61,49.11c-.89-.08-.97.35-.97.35l3,1.31s-1.14-1.58-2.03-1.66Z"/><path class="cls-2" d="M220.68,50.68c-.13-.05-.25-.11-.38-.16.09.1.17.21.25.32l.13-.16Z"/><path class="cls-2" d="M220.42,50.34c-.1-.12-.21-.24-.32-.36-.11-.12-.23-.23-.35-.33-.12-.11-.25-.21-.38-.3-.14-.09-.28-.17-.43-.23-.08-.03-.16-.05-.24-.06h-.06s-.04,0-.06,0h-.12c-.08,0-.16,0-.24.02-.08.01-.16.03-.24.06-.08.03-.15.07-.21.13-.06.06-.11.13-.12.2.03-.08.08-.13.14-.18.06-.04.13-.08.21-.1.04,0,.07-.02.11-.02.04,0,.08-.01.11-.01.04,0,.08,0,.12,0h.12s.12.02.12.02c.02,0,.04,0,.05,0h.06c.07.03.14.05.21.08.14.06.27.14.39.23.12.09.24.19.35.3.11.11.22.22.33.33.11.11.21.23.31.35.01.02.03.03.04.05.13.05.25.11.38.16l-.13.16c-.08-.11-.16-.21-.25-.32-.13-.05-.25-.11-.38-.16-.25-.11-.5-.21-.76-.31-.25-.1-.51-.2-.76-.3-.26-.1-.51-.19-.77-.28.24.13.49.25.73.37.25.12.49.24.74.35.25.12.49.23.74.34.25.11.5.22.75.33l.35.16-.23-.31c-.1-.13-.19-.26-.3-.38Z"/><path class="cls-2" d="M231.86,60.16c-.07-.08-.16-.17-.27-.26-.11-.09-.25-.19-.43-.26-.09-.03-.19-.05-.3-.05-.11,0-.22.04-.32.09-.2.12-.34.31-.44.52-.1.21-.17.43-.23.67-.03.12-.05.23-.07.35,0,.06-.02.12-.03.18l-.02.18c-.01.12-.03.24-.04.35,0,.12-.01.24-.02.36,0,.06,0,.12-.01.18,0,.06,0,.12,0,.17,0,.12,0,.23,0,.34.01.11.02.22.03.33.02.11.04.21.05.31.02.1.05.2.07.29.02.09.06.18.09.27.03.09.07.16.11.24.04.07.08.14.12.2.04.06.09.11.13.16.05.04.08.09.12.12.04.03.08.06.11.09.03.02.06.04.09.05.05.03.08.04.08.04,0,0-.03-.01-.07-.05-.05-.03-.11-.09-.18-.16-.04-.04-.07-.08-.11-.13-.03-.05-.07-.11-.11-.17-.03-.06-.07-.13-.1-.2-.03-.08-.06-.15-.09-.23-.05-.17-.09-.35-.13-.55-.01-.1-.02-.2-.04-.31,0-.1-.01-.21-.02-.32,0-.11,0-.22,0-.33,0-.06,0-.11,0-.17,0-.06,0-.11.01-.17,0-.11.02-.23.02-.35.02-.12.03-.23.05-.35l.02-.18c0-.05.02-.11.03-.17.02-.12.04-.23.07-.34.05-.22.11-.44.2-.63.09-.19.2-.36.35-.47.08-.05.16-.08.24-.09.08,0,.17,0,.25.02.16.05.3.13.42.21.12.08.21.16.29.23.15.14.23.23.23.23,0,0-.02-.02-.05-.07-.03-.04-.08-.11-.15-.19Z"/><path class="cls-2" d="M208.82,47.06c-2.16-.87-3.07,1.15-3.07,1.15,3.18-2.71,5.1,1.8,5.1,1.8,0,0,.13-2.09-2.03-2.95Z"/><path class="cls-12" d="M215.19,50.67c1.86,1.12,8.01,1.65,8.01,1.65l-9.15-2.26,1.15.62Z"/><polygon class="cls-2" points="214.02 50.15 214.82 50.35 214.1 49.96 214.02 50.15"/><path class="cls-2" d="M218.64,51.11c-.76-.2-1.52-.39-2.28-.58l-2.29-.57-.82-.21.75.4,1.05.56.26.14c.09.05.18.09.28.13.19.08.37.15.56.21.1.03.19.06.29.09.1.03.19.06.29.08.19.05.39.1.58.15.19.05.39.09.58.13.2.04.39.08.59.11.78.14,1.57.25,2.36.35.79.09,1.58.17,2.37.22-.39-.05-.79-.1-1.18-.15-.39-.05-.79-.11-1.18-.17-.78-.12-1.56-.25-2.34-.41-.39-.08-.77-.17-1.16-.26-.19-.05-.38-.1-.57-.15-.09-.03-.19-.05-.28-.08-.09-.03-.19-.06-.28-.09-.19-.06-.37-.13-.55-.21-.09-.04-.18-.08-.26-.12l-.26-.14-.33-.18-.79-.19.08-.19.72.39,1.5.37c.76.18,1.53.37,2.29.55l2.29.54c.77.17,1.53.35,2.3.52-.76-.21-1.52-.41-2.28-.62l-2.28-.59Z"/><path class="cls-3" d="M212.75,66.15c1.85-.82,2.64-3.99,2.64-3.99l-7.29,1.21s2.8,3.6,4.65,2.78Z"/><path class="cls-2" d="M213.69,62.82c-.05.08-.11.16-.18.25-.04.04-.08.08-.12.12-.05.04-.09.08-.14.11-.1.07-.22.14-.35.19-.13.05-.27.09-.41.12-.07.01-.15.03-.21.03-.08,0-.15.01-.23.02-.07,0-.15,0-.22,0-.07,0-.15,0-.22-.01-.15-.01-.29-.03-.43-.05-.07,0-.14-.03-.2-.04-.07-.01-.13-.03-.19-.05-.06-.02-.12-.03-.18-.05-.06-.02-.12-.04-.17-.05-.43-.15-.71-.3-.71-.3,0,0,.06.05.17.13.06.04.13.08.21.13.08.05.18.1.28.15.05.03.11.05.17.08.06.03.12.05.18.07.06.02.13.05.2.07.07.02.14.04.21.06.14.03.3.06.45.08.08,0,.16.01.24.02.08,0,.16,0,.24,0,.08,0,.15-.01.23-.02.09-.01.16-.03.24-.04.15-.03.3-.08.44-.15.14-.06.26-.15.37-.23.05-.05.1-.09.15-.14.04-.05.08-.1.12-.15.07-.1.12-.19.16-.28.04-.09.06-.17.08-.24.02-.07.02-.12.03-.16,0-.04,0-.06,0-.06,0,0-.02.08-.07.2-.03.06-.06.13-.11.21Z"/><path class="cls-1" d="M210.47,62.09c-2.19.42-2.37,1.28-2.37,1.28l7.29-1.21s-2.73-.49-4.93-.07Z"/><path class="cls-1" d="M212.76,66.03c-1.13.34-3.98-1.89-3.98-1.89,0,0,1.73,2.42,3.08,2.74,1.35.32,3.06-1.33,3.17-3.61,0,0-1.13,2.43-2.26,2.76Z"/><path class="cls-1" d="M211.4,55.41s-.45,2.14-.88,3.59c-.43,1.45-1.01,1.85-.64,1.86.38,0,1.98-1.16,2.08-1.9.11-.74-.6-3.71-.6-3.71l.03.17Z"/><path class="cls-12" d="M220.5,50.38c-3.01-.66-4.84,1.69-4.84,1.69,4.88-2.71,8.07.41,8.07.41,0,0-.22-1.44-3.23-2.1Z"/><path class="cls-2" d="M223.53,52.26s.04.08.06.12c.01.04.03.09.04.12l.18-.09c-.11-.1-.22-.19-.34-.28,0,0,0,0,0,0,.03.04.05.08.07.12Z"/><path class="cls-2" d="M223.72,52.16s-.05-.09-.08-.14c-.03-.04-.05-.09-.09-.13-.12-.17-.26-.31-.41-.45-.08-.07-.16-.13-.24-.19l-.25-.17c-.17-.1-.35-.2-.53-.28-.18-.09-.37-.15-.55-.22-.09-.03-.19-.06-.29-.09-.1-.03-.19-.06-.29-.08l-.29-.07-.14-.03h-.04s-.02-.01-.02-.01h-.02s-.07-.02-.07-.02c-.1-.02-.2-.04-.3-.05-.1-.01-.2-.02-.3-.03h-.15s-.15-.01-.15-.01c-.1,0-.2,0-.3,0-.1,0-.2.02-.3.03-.1.02-.2.03-.3.05-.2.04-.39.09-.58.15-.19.06-.38.13-.55.22-.36.17-.7.38-1.01.62-.31.24-.6.51-.84.82.13-.15.27-.28.42-.41.15-.13.3-.25.46-.37.32-.23.66-.42,1.02-.57.18-.08.36-.14.55-.2.19-.05.37-.1.57-.13.1-.02.19-.03.29-.04.1,0,.19-.02.29-.02.1,0,.19,0,.29,0h.14s.14.02.14.02c.1,0,.19.02.29.04.1.01.19.03.28.05h.07s.02.02.02.02c0,0,.01,0,.02,0h.04s.14.05.14.05l.29.07c.1.02.18.06.28.09.09.03.18.06.27.09.18.07.36.14.53.22.18.08.34.17.51.27l.24.16c.07.06.15.12.22.18.14.13.27.26.38.42.03.03.05.07.07.11.12.09.23.18.34.28l-.18.09s-.02-.08-.04-.12c-.02-.04-.03-.08-.06-.12-.02-.04-.04-.08-.07-.12,0,0,0,0,0,0-.03-.02-.06-.05-.09-.07-.15-.11-.3-.2-.46-.3-.16-.09-.32-.18-.48-.26-.08-.04-.17-.08-.25-.11-.08-.04-.17-.07-.25-.1-.08-.03-.17-.06-.26-.09-.09-.03-.17-.05-.26-.08-.09-.03-.18-.05-.27-.07-.09-.02-.18-.04-.27-.06-.18-.04-.36-.06-.54-.08l-.27-.02h-.27c-.09-.01-.18,0-.27,0-.09,0-.18,0-.27.01l-.27.02-.27.04c-.09,0-.18.03-.27.04-.09.02-.18.03-.27.05-.18.04-.35.08-.53.14-.09.03-.17.05-.26.08l-.25.09c-.17.06-.33.14-.5.21-.17.07-.33.16-.49.23-.16.09-.31.18-.47.26.16-.08.32-.16.49-.24.17-.07.33-.15.5-.21.17-.06.33-.13.51-.18l.26-.08c.09-.02.17-.05.26-.07.17-.05.35-.08.52-.12.09-.02.18-.03.26-.04.09-.01.18-.03.26-.04l.27-.03h.27c.09-.02.18-.02.27-.02.09,0,.18,0,.27,0l.27.02.26.03c.18.02.35.05.52.09.09.02.17.04.26.06.09.02.17.04.26.07.09.02.17.05.25.08.08.03.17.06.25.09.08.03.17.06.25.1.08.03.16.07.24.11.16.08.32.16.47.25.15.09.3.19.44.29.14.1.28.21.41.33l.24.22-.06-.31c-.02-.12-.06-.21-.11-.31Z"/><path class="cls-3" d="M209.52,41.23s1.02,13.19,19.15,16.87l-3.19,20.1,2.19.03,1.65-19.38s.75-1.68,2.75-.68c2,1,1.26,6.57-.4,7.71-1.66,1.13-2.45-.08-2.45-.08v13.23s10.47-1.55,10.47-1.55c0,0,2.07-28.25-3.47-34.73-5.54-6.47-25.92-5.08-26.71-1.52Z"/><path class="cls-12" d="M236.56,49.77c-.54-.14-1.14-.3-1.8-.48-.66-.18-1.37-.38-2.12-.59-.38-.11-.76-.22-1.15-.34-.39-.12-.79-.24-1.2-.37-.81-.25-1.66-.52-2.5-.81-.21-.07-.43-.14-.64-.22-.21-.07-.43-.15-.64-.22-.43-.15-.85-.31-1.28-.46-.43-.15-.85-.32-1.28-.48-.42-.17-.84-.34-1.26-.5-.41-.18-.82-.34-1.22-.52-.2-.09-.4-.18-.6-.27-.1-.04-.2-.09-.3-.13-.1-.05-.19-.09-.29-.14-.38-.18-.77-.36-1.13-.55-.37-.18-.73-.36-1.07-.55-.17-.09-.34-.18-.51-.27-.17-.09-.33-.19-.49-.28-.16-.09-.31-.18-.47-.27-.15-.09-.3-.19-.44-.28-.29-.18-.57-.35-.82-.54-.13-.09-.25-.17-.37-.26-.12-.08-.24-.16-.35-.25-.22-.17-.42-.33-.61-.47-.18-.15-.35-.3-.5-.43-.15-.13-.29-.25-.39-.36-.11-.11-.2-.2-.28-.28-.15-.15-.23-.23-.23-.23,0,0,.08.08.22.24.07.08.16.17.27.29.05.06.11.12.17.18.07.06.14.12.21.19.15.13.31.29.49.44.19.15.39.32.6.49.11.09.22.17.34.26.12.09.24.18.37.27.25.19.53.36.81.55.14.09.29.19.44.28.15.09.31.19.47.28.16.09.32.2.48.29.17.09.34.19.51.28.34.2.7.38,1.06.57.36.2.75.37,1.13.56.1.05.19.09.29.14.1.04.2.09.3.13.2.09.4.18.6.27.4.18.81.35,1.23.53.42.17.84.34,1.26.51.42.16.85.33,1.28.49.43.15.86.31,1.29.46.21.07.43.15.64.22.21.07.43.14.64.21.85.28,1.69.55,2.51.8.41.12.81.24,1.21.36.4.11.78.22,1.16.32.76.2,1.47.39,2.14.56.66.17,1.27.31,1.81.44.54.12,1.01.23,1.4.31.39.08.7.15.91.19.21.04.32.06.32.06,0,0-.44-.1-1.22-.29-.39-.09-.86-.21-1.39-.35Z"/><path class="cls-12" d="M236.5,55.78c-.66-.04-1.4-.15-2.21-.25-.1-.01-.2-.03-.31-.04-.1-.01-.21-.03-.31-.05-.21-.04-.42-.07-.64-.11-.22-.04-.44-.08-.66-.11-.06,0-.11-.02-.17-.03-.06-.01-.11-.02-.17-.04-.11-.03-.23-.05-.34-.08-.23-.05-.46-.1-.69-.15-.23-.05-.47-.1-.71-.17-.47-.13-.96-.26-1.45-.4-.48-.16-.98-.31-1.47-.48-.49-.19-.99-.37-1.48-.56-.25-.11-.49-.21-.74-.32-.25-.11-.5-.21-.74-.33-.24-.12-.49-.24-.73-.35l-.37-.18-.36-.19c-.24-.13-.48-.26-.72-.39-.12-.06-.24-.13-.35-.2l-.35-.21-.35-.21c-.12-.07-.23-.14-.34-.21-.22-.15-.45-.29-.67-.44-.11-.07-.22-.14-.33-.22-.11-.08-.22-.15-.32-.23-.21-.15-.43-.31-.64-.46-.21-.16-.41-.32-.61-.48-.1-.08-.2-.16-.3-.24-.1-.08-.2-.16-.29-.25-.19-.16-.39-.33-.58-.49-.19-.17-.37-.33-.55-.5-.09-.08-.18-.16-.27-.25-.09-.08-.17-.17-.26-.25-.17-.17-.34-.33-.51-.49-.16-.17-.32-.33-.48-.5-.08-.08-.16-.16-.23-.24-.07-.08-.15-.17-.22-.25-.15-.16-.29-.32-.43-.48-.14-.16-.27-.32-.4-.48-.52-.63-.98-1.22-1.36-1.76-.19-.27-.36-.53-.52-.76-.15-.24-.3-.46-.42-.67-.5-.81-.73-1.31-.73-1.31,0,0,.05.12.17.35.12.23.28.56.53.97.12.21.26.43.41.68.16.24.32.51.51.78.18.28.39.56.61.86.11.15.23.3.35.46.12.15.24.31.37.47.13.16.26.32.4.48.14.16.28.32.43.49.07.08.15.17.22.25.08.08.15.16.23.25.16.17.31.33.47.51.17.17.33.33.5.5.09.08.17.17.26.26.09.08.18.17.27.25.18.17.36.34.55.51.19.16.38.33.58.49.1.08.19.17.29.25.1.08.2.16.3.24.2.16.41.32.62.49.21.15.43.31.64.47.11.08.22.16.32.23.11.08.22.15.33.22.22.15.45.3.67.45.11.08.23.14.34.21l.35.21.35.21c.12.07.23.14.35.21.24.13.48.26.72.39l.36.19.37.18c.25.12.49.24.74.35.24.12.5.22.74.33.25.11.5.21.74.32.5.2,1,.37,1.5.56.5.16,1,.32,1.48.47.24.07.49.13.73.2.24.06.48.13.72.19.24.07.48.11.71.16.24.05.47.1.7.15.11.02.23.05.34.07.06.01.11.02.17.04.06,0,.11.02.17.03.22.04.45.07.66.11.22.03.43.07.64.1.11.02.21.04.31.05.1.01.21.02.31.03.41.05.8.09,1.17.13.37.05.72.06,1.05.08.66.04,1.24.08,1.72.08.95.01,1.5.02,1.5.02,0,0-.54-.02-1.49-.06-.48,0-1.05-.06-1.71-.12Z"/><path class="cls-12" d="M236.25,76.25c0-.36-.01-.76-.02-1.2-.02-.88-.04-1.9-.07-3-.02-.55-.03-1.11-.05-1.69-.01-.57-.05-1.16-.08-1.75-.02-.29-.06-.58-.09-.88-.02-.15-.03-.29-.05-.44-.02-.14-.04-.29-.06-.43-.07-.57-.19-1.13-.31-1.67-.07-.27-.13-.53-.2-.79-.07-.26-.15-.5-.22-.74-.16-.48-.32-.93-.49-1.33-.08-.21-.17-.4-.26-.58-.08-.18-.18-.35-.26-.51-.08-.16-.17-.3-.25-.44-.08-.13-.16-.25-.23-.36-.14-.21-.27-.37-.35-.48-.09-.11-.14-.16-.14-.16,0,0,.05.06.13.17.08.11.19.28.33.5.06.11.14.23.21.37.07.14.15.28.23.44.08.16.16.33.24.51.08.18.17.37.24.58.16.41.31.86.46,1.33.07.24.14.49.2.74.06.26.12.52.18.78.05.27.1.54.16.82.01.07.03.14.04.21.01.07.02.14.03.21.02.14.04.28.06.42.02.14.04.28.06.43.02.14.03.29.04.43.03.29.06.58.08.87.03.58.07,1.16.09,1.74.02.58.05,1.14.07,1.69.04,1.1.1,2.12.14,3,.02.44.04.84.06,1.2.02.36.04.67.06.92.04.51.06.8.06.8,0,0,0-.29-.02-.8,0-.26-.02-.57-.02-.92Z"/><path class="cls-2" d="M231.89,76.66c-.02-.59-.04-1.27-.08-2-.02-.37-.03-.75-.05-1.13-.02-.38-.04-.78-.06-1.17-.02-.39-.05-.78-.07-1.17-.02-.38-.05-.76-.07-1.13-.05-.73-.1-1.42-.14-2-.04-.59-.09-1.07-.12-1.41-.03-.34-.05-.54-.05-.54,0,0,0,.2,0,.54,0,.34.02.83.04,1.42.02.59.04,1.27.08,2.01.02.37.03.75.05,1.13.02.38.04.78.06,1.17.02.39.04.78.07,1.17.02.38.05.76.07,1.13.05.73.1,1.42.14,2,.04.59.09,1.07.12,1.41.03.34.05.54.05.54,0,0,0-.2,0-.54,0-.34-.02-.83-.04-1.42Z"/><path class="cls-3" d="M220.54,53.08c-.77-.15-1.56.54-1.76,1.55-.2,1.01.26,1.95,1.03,2.11.77.15,1.56-.54,1.76-1.55.2-1.01-.26-1.95-1.03-2.11Z"/><path class="cls-2" d="M219.15,53.31h0s0,0,0,0Z"/><path class="cls-2" d="M222.4,54.16s-.02-.08-.04-.13c-.02-.05-.04-.1-.07-.16-.03-.06-.06-.11-.1-.17-.07-.12-.17-.25-.29-.39-.12-.13-.26-.26-.43-.38l-.06-.05s-.05-.03-.08-.05c-.04-.03-.08-.05-.13-.08l-.06-.04s-.05-.02-.08-.04c-.05-.02-.11-.05-.16-.07-.06-.03-.11-.05-.17-.06-.06-.02-.11-.04-.17-.05-.11-.03-.23-.05-.35-.08-.12-.01-.24-.03-.37-.03h-.19s-.09,0-.09,0h-.09c-.12.03-.25.04-.37.07-.06.01-.12.03-.18.04h-.03s0,.01,0,.01h0s-.02.01-.02.01h-.04s-.08.04-.08.04c-.05.02-.1.04-.15.06-.06.03-.12.06-.18.09-.06.03-.12.06-.17.09-.05.03-.1.07-.15.1-.19.14-.35.31-.48.48-.06.09-.12.17-.17.26-.04.09-.09.17-.12.26-.03.08-.06.16-.08.24-.02.08-.04.15-.05.22-.03.14-.03.26-.03.37,0,.1,0,.18.01.23,0,.05.01.08.01.08,0,0,.01-.03.03-.07.02-.05.06-.12.1-.2.05-.08.1-.18.17-.29.02-.03.04-.05.05-.08.02-.03.04-.05.06-.08.04-.06.09-.11.14-.17.05-.06.1-.11.16-.17.06-.06.12-.11.18-.16.13-.1.27-.2.42-.28.04-.02.08-.04.12-.06.04-.02.08-.03.11-.05.04-.02.07-.03.11-.05.05-.02.1-.03.15-.05l.08-.02h.04s.02-.02.02-.02h0s0,0,0,0c0,0,.01,0-.02,0h0s.09-.02.14-.03c.09-.02.18-.03.28-.04h.07s.07-.01.07-.01h.14c.09,0,.19,0,.28,0,.05,0,.09.01.14.02.05,0,.09,0,.14.02.05,0,.09.02.13.03.04,0,.09.01.13.03.04.01.08.02.12.03l.06.02.07.03s.09.03.14.05h.03s.02.02.02.02h0s-.02,0-.01,0h0s0,0,0,0l.06.02c.16.06.31.14.44.21.13.08.25.15.36.23.05.04.1.07.15.11.04.04.08.07.12.1.08.06.13.12.17.15.04.03.06.05.06.05,0,0,0-.03-.02-.08,0-.03-.02-.06-.03-.09Z"/><path class="cls-12" d="M221.52,48.62c-2.16-.87-3.07,1.15-3.07,1.15,3.18-2.71,5.1,1.8,5.1,1.8,0,0,.13-2.09-2.03-2.95Z"/><path class="cls-6" d="M251.03,113.58c-8.69-.13-9.03,11.93-8.21,14.81,0,0,3.59,12.7,8.17,27.32,7.25-4.28,13.56-10.01,18.52-16.79-2.21-7.41-4.01-12.91-4.65-13.89-2.1-3.18-5.14-11.34-13.83-11.46Z"/><path class="cls-13" d="M245.54,103.26s-11.22,7.2-9.94,17.78c1.28,10.58,7.2,33.69,7.2,33.69l26.2-29.69s-.64-4.28-4.22-11.27c-3.58-6.99-7.38-11.64-19.24-10.52Z"/><path class="cls-6" d="M167.84,102.43c.26-1.43.7-3.61,1.09-4.22.6-.92,1.89-8.2,1.89-8.2,0,0,.05-12.41-1.04-12.41-1.09,0-2.29,3.81-2.6,7.61-.31,3.8-1.56,3.11-1.56,3.11,0,0-6.01-5.16-6.29-6.2-.27-1.04-.37-7.05-2.95-8.24-.33-.17-.9.92-1.76,2.36-.78,1.3-.6,3.19-.55,4.43.11,2.72-1.28,4.58-.55,8.04.73,3.46,4.41,11.31,8.09,14.48-.21.54-.49.86-.79,1.05l.9-.07,4.91,52.37s9.33,16.82,14.78,16.21c4.94-.56,11.46-17.12,11.46-17.12l-25-53.19h-.03Z"/><path class="cls-3" d="M159.7,86.42c-.22-.25-.45-.52-.69-.82-.24-.3-.48-.61-.72-.95-.12-.17-.23-.34-.33-.53-.05-.09-.09-.19-.12-.28-.01-.05-.02-.09-.02-.13,0-.02,0-.03,0-.04,0,0,0,0,0,0h.01s0-.02,0-.02c0,0,0,0,0,0h0c.07-.06.1-.13.12-.19.02-.06.03-.12.04-.18.01-.12.01-.23,0-.35-.01-.23-.04-.45-.08-.67-.08-.44-.19-.87-.3-1.29-.11-.42-.24-.83-.36-1.23-.25-.79-.51-1.52-.74-2.15-.23-.62-.43-1.14-.57-1.5-.14-.36-.23-.56-.23-.56,0,0,.07.21.19.58.13.37.29.89.5,1.52.21.63.44,1.37.67,2.16.12.4.23.81.34,1.23.11.42.21.85.29,1.28.04.22.07.43.08.64,0,.11,0,.21,0,.31-.01.1-.04.2-.08.23l-.04.03s-.04.05-.04.07c-.02.04-.02.08-.03.12,0,.07.01.13.03.19.04.11.09.22.14.31.11.19.23.37.35.54.24.34.5.65.75.94.25.29.49.56.71.8.45.49.84.88,1.12,1.15.27.27.44.42.44.42,0,0-.15-.16-.41-.45-.26-.29-.62-.7-1.06-1.2Z"/><path class="cls-3" d="M161.12,94.38c-.04-.12-.09-.24-.14-.36-.05-.14-.14-.25-.23-.35-.18-.21-.39-.39-.6-.57-.43-.36-.88-.7-1.35-1.05-.46-.35-.94-.69-1.38-1.07-.11-.1-.21-.19-.3-.3-.09-.11-.18-.22-.27-.34-.17-.23-.32-.48-.46-.73-.13-.25-.25-.51-.35-.77-.1-.26-.18-.53-.24-.79-.13-.53-.19-1.05-.21-1.56,0-.13,0-.25-.01-.37,0-.12,0-.25-.02-.37-.01-.12-.03-.24-.04-.35-.02-.11-.04-.23-.06-.34-.09-.44-.21-.83-.35-1.16-.14-.33-.29-.61-.42-.83-.13-.22-.25-.39-.34-.49-.09-.11-.14-.16-.14-.16,0,0,.05.06.13.17.08.11.19.28.31.51.12.22.26.51.38.84.12.33.23.72.31,1.15.02.11.03.22.05.33,0,.11.02.23.03.35,0,.12,0,.24,0,.36,0,.12,0,.25,0,.37,0,.51.05,1.05.18,1.6.06.27.15.55.24.82.1.27.22.54.36.8.14.26.3.51.47.75.09.12.18.24.27.35.1.12.21.23.32.32.46.39.94.73,1.4,1.07.47.34.93.68,1.35,1.02.21.17.41.35.59.54.09.09.17.19.21.3.05.12.1.24.14.36.19.47.34.92.41,1.35.06.43.06.83.01,1.19-.01.09-.03.17-.04.25-.02.08-.03.16-.05.24-.03.15-.06.29-.08.42-.1.51-.15.8-.15.8,0,0,.07-.29.19-.79.03-.13.06-.26.1-.41.02-.08.04-.15.06-.24.02-.08.03-.17.05-.26.06-.36.08-.77.03-1.22-.06-.44-.2-.91-.38-1.39Z"/><polygon class="cls-3" points="156.93 85.39 156.93 85.37 156.92 85.35 156.93 85.39"/><path class="cls-3" d="M159.61,88.82c-.08-.07-.15-.15-.22-.22l-.22-.23c-.07-.08-.14-.16-.21-.24l-.21-.24c-.07-.08-.14-.16-.2-.24l-.2-.25-.2-.25c-.06-.08-.12-.17-.19-.25l-.37-.51c-.06-.08-.12-.17-.18-.26l-.17-.26-.33-.51v.02s-.01-.04-.01-.04v.02s-.16-1-.16-1c-.03-.17-.07-.34-.1-.51-.04-.17-.08-.34-.12-.51-.04-.17-.09-.33-.14-.5-.05-.17-.09-.33-.14-.5l-.3-.99-.31-.99c-.1-.33-.21-.66-.32-.99-.11-.33-.22-.66-.33-.98-.11-.33-.22-.65-.33-.98.09.33.18.67.27,1,.09.33.18.67.28,1l.28,1,.29.99.28.99c.05.17.09.33.14.5.04.17.09.33.13.5.04.17.08.33.12.5.03.17.07.33.1.5l.18,1.02v.02s.01.01.01.01l.36.52.18.26c.06.09.12.18.18.26l.39.5c.07.08.13.17.19.25l.21.24.21.24c.07.08.14.16.21.24l.22.23c.07.08.15.15.22.23l.23.22c.08.07.15.15.23.21.08.07.16.14.24.2.08.06.17.13.25.19-.08-.07-.16-.14-.24-.21l-.23-.22Z"/><path class="cls-3" d="M336.29,111.32l-.47,2.05s4.73.16,7.26-1.21c.16-.11-.05-2.42-.05-2.42,0,0-5.52,2.37-6.73,1.58Z"/></svg>